<svg width="383" height="389" viewBox="0 0 383 389" fill="none" xmlns="http://www.w3.org/2000/svg">
<g clip-path="url(#clip0_306_204)">
<path d="M166.874 329.239C165.053 332.701 162.25 335.546 158.816 337.415C155.383 339.283 151.473 340.092 147.581 339.74C143.688 339.387 139.987 337.888 136.945 335.433C133.902 332.977 131.654 329.675 130.484 325.942C129.314 322.209 129.274 318.212 130.37 314.457C131.466 310.702 133.649 307.355 136.642 304.84C139.636 302.324 143.306 300.753 147.191 300.323C151.075 299.893 155 300.625 158.47 302.425C160.786 303.627 162.843 305.276 164.52 307.276C166.198 309.277 167.463 311.59 168.244 314.082C169.026 316.574 169.307 319.196 169.072 321.797C168.836 324.399 168.089 326.928 166.874 329.239V329.239Z" fill="#211049"/>
<g style="mix-blend-mode:multiply" opacity="0.5">
<g style="mix-blend-mode:multiply" opacity="0.5">
<path d="M153.615 328.502C151.296 327.303 149.236 325.656 147.556 323.656C145.876 321.656 144.609 319.342 143.827 316.849C143.046 314.356 142.766 311.732 143.003 309.13C143.241 306.528 143.991 303.998 145.211 301.688C145.412 301.252 145.68 300.85 145.914 300.448C142.654 300.994 139.583 302.351 136.983 304.394C134.382 306.436 132.335 309.1 131.03 312.139C129.724 315.179 129.201 318.498 129.509 321.793C129.817 325.088 130.945 328.252 132.792 330.997C134.638 333.742 137.143 335.979 140.076 337.503C143.01 339.027 146.28 339.79 149.584 339.722C152.889 339.654 156.124 338.757 158.993 337.113C161.861 335.468 164.272 333.13 166.003 330.312C161.787 331.076 157.437 330.441 153.615 328.502V328.502Z" fill="#A0A0A0"/>
</g>
</g>
<path d="M259.92 318.782C259.477 319.746 258.848 320.614 258.069 321.334C257.29 322.055 256.377 322.615 255.382 322.983C254.387 323.35 253.329 323.517 252.269 323.475C251.21 323.433 250.169 323.182 249.206 322.737L210.166 302.392C208.325 301.302 206.989 299.527 206.45 297.455C205.91 295.383 206.211 293.182 207.287 291.331V291.331C208.19 289.39 209.821 287.882 211.826 287.136C213.832 286.389 216.05 286.464 218.001 287.343L257.041 307.687C258.878 308.79 260.209 310.57 260.747 312.645C261.286 314.72 260.989 316.924 259.92 318.782V318.782Z" fill="#4B358E"/>
<path d="M212.644 305.341C210.227 309.964 206.924 314.064 202.923 317.409C198.922 320.753 194.302 323.275 189.327 324.831C184.352 326.388 179.12 326.947 173.928 326.479C168.737 326.01 163.689 324.522 159.073 322.1L145.68 315.128C141.062 312.708 136.966 309.402 133.625 305.396C130.285 301.391 127.765 296.767 126.211 291.787C124.656 286.806 124.096 281.568 124.565 276.372C125.033 271.175 126.519 266.122 128.939 261.501L151.64 217.928C154.057 213.306 157.36 209.205 161.361 205.861C165.362 202.517 169.982 199.994 174.957 198.438C179.932 196.882 185.164 196.322 190.356 196.791C195.547 197.26 200.595 198.748 205.211 201.17L218.604 208.175C223.222 210.595 227.318 213.902 230.659 217.907C233.999 221.912 236.519 226.536 238.073 231.516C239.628 236.497 240.188 241.735 239.719 246.931C239.251 252.128 237.765 257.181 235.345 261.802L212.644 305.341Z" fill="#211049"/>
<g style="mix-blend-mode:multiply" opacity="0.5">
<g style="mix-blend-mode:multiply" opacity="0.5">
<path d="M187.198 317.575L173.805 310.872C169.144 308.539 164.987 305.31 161.573 301.37C158.159 297.429 155.553 292.854 153.905 287.905C152.257 282.956 151.599 277.731 151.969 272.528C152.339 267.324 153.729 262.245 156.059 257.579L178.024 213.605C181.411 206.811 186.675 201.134 193.191 197.248C184.943 195.883 176.475 197.16 168.995 200.898C161.515 204.635 155.406 210.643 151.539 218.063L128.839 261.635C126.419 266.256 124.932 271.309 124.464 276.506C123.996 281.703 124.555 286.941 126.11 291.921C127.665 296.901 130.184 301.526 133.525 305.531C136.866 309.536 140.962 312.843 145.58 315.262L158.972 322.234C164.977 325.369 171.683 326.913 178.452 326.719C185.221 326.525 191.828 324.601 197.644 321.128C194.015 320.43 190.5 319.234 187.198 317.575V317.575Z" fill="#A0A0A0"/>
</g>
</g>
<path d="M251.483 249.77C238.693 274.371 205.68 282.516 177.823 267.936C149.966 253.356 137.645 221.649 150.468 197.081C163.292 172.513 185.155 185.685 213.079 200.231C241.003 214.778 264.306 225.202 251.483 249.77Z" fill="#4B358E"/>
<path d="M212.041 331.35C211.181 333.032 211.018 334.986 211.589 336.787C212.159 338.588 213.417 340.091 215.088 340.97L305.489 387.894C306.32 388.331 307.229 388.6 308.163 388.685C309.098 388.77 310.04 388.67 310.936 388.39C311.832 388.109 312.664 387.655 313.384 387.052C314.104 386.449 314.698 385.71 315.132 384.877L332.677 351.126C333.113 350.297 333.381 349.389 333.465 348.456C333.55 347.523 333.449 346.582 333.169 345.688C332.889 344.794 332.435 343.964 331.833 343.247C331.232 342.529 330.494 341.937 329.663 341.506L248.034 277.723C247.206 277.286 246.3 277.018 245.368 276.933C244.435 276.849 243.496 276.95 242.603 277.23C241.71 277.51 240.88 277.965 240.163 278.567C239.446 279.169 238.856 279.908 238.425 280.74L212.041 331.35Z" fill="#211049"/>
<path d="M219.608 316.972C219.172 317.801 218.904 318.708 218.819 319.641C218.734 320.574 218.835 321.515 219.115 322.409C219.395 323.303 219.849 324.133 220.451 324.85C221.053 325.568 221.79 326.16 222.621 326.591L313.023 373.716C313.853 374.152 314.761 374.418 315.694 374.5C316.628 374.583 317.569 374.479 318.462 374.195C319.356 373.912 320.184 373.454 320.9 372.848C321.615 372.242 322.204 371.501 322.632 370.666L340.21 336.914C340.646 336.085 340.914 335.178 340.999 334.245C341.083 333.312 340.982 332.371 340.702 331.477C340.422 330.583 339.968 329.753 339.367 329.035C338.765 328.318 338.027 327.726 337.196 327.295L255.668 263.311C253.989 262.436 252.032 262.263 250.225 262.828C248.418 263.393 246.908 264.651 246.025 266.327L219.608 316.972Z" fill="#4B358E"/>
<path d="M314.429 322.636C314.099 323.061 313.857 323.548 313.718 324.068C313.578 324.587 313.542 325.13 313.614 325.663C313.686 326.197 313.863 326.711 314.135 327.175C314.407 327.639 314.769 328.045 315.199 328.368L325.444 336.211C326.309 336.86 327.394 337.143 328.465 336.999C329.536 336.854 330.508 336.294 331.17 335.44C331.815 334.57 332.092 333.482 331.942 332.409C331.791 331.337 331.226 330.366 330.367 329.708L320.121 321.865C319.262 321.218 318.182 320.936 317.117 321.08C316.051 321.224 315.086 321.783 314.429 322.636V322.636Z" fill="white"/>
<path d="M307.398 335.875C307.117 336.33 306.928 336.837 306.843 337.365C306.758 337.893 306.779 338.433 306.903 338.953C307.028 339.473 307.254 339.964 307.569 340.396C307.883 340.829 308.28 341.195 308.737 341.473L319.719 348.176C320.639 348.735 321.743 348.908 322.79 348.657C323.837 348.406 324.743 347.751 325.31 346.835V346.835C325.592 346.38 325.78 345.874 325.865 345.346C325.95 344.818 325.929 344.278 325.805 343.758C325.68 343.237 325.454 342.747 325.139 342.315C324.825 341.882 324.428 341.516 323.971 341.238L312.989 334.535C312.069 333.975 310.965 333.802 309.918 334.053C308.871 334.304 307.965 334.959 307.398 335.875V335.875Z" fill="white"/>
<path d="M297.888 350.087C297.649 350.582 297.509 351.119 297.477 351.669C297.445 352.218 297.521 352.768 297.701 353.288C297.882 353.808 298.163 354.287 298.528 354.698C298.893 355.109 299.336 355.444 299.831 355.684L311.918 361.952C312.892 362.481 314.035 362.606 315.1 362.299C316.165 361.991 317.066 361.277 317.609 360.309V360.309C318.049 359.311 318.085 358.181 317.711 357.156C317.336 356.131 316.58 355.292 315.601 354.813L303.514 348.578C303.032 348.312 302.503 348.142 301.956 348.081C301.41 348.019 300.856 348.066 300.327 348.218C299.799 348.371 299.305 348.626 298.876 348.97C298.446 349.313 298.087 349.738 297.821 350.221L297.888 350.087Z" fill="white"/>
<path d="M275.422 337.618C275.177 338.111 275.032 338.647 274.995 339.196C274.958 339.745 275.031 340.295 275.208 340.816C275.386 341.337 275.665 341.817 276.029 342.229C276.394 342.641 276.836 342.976 277.331 343.216L289.418 349.483C289.899 349.75 290.428 349.919 290.975 349.981C291.522 350.043 292.075 349.996 292.604 349.844C293.133 349.691 293.626 349.436 294.056 349.092C294.486 348.748 294.844 348.323 295.11 347.841V347.841C295.349 347.346 295.489 346.808 295.521 346.259C295.553 345.71 295.477 345.159 295.297 344.64C295.117 344.12 294.836 343.641 294.471 343.23C294.105 342.819 293.663 342.483 293.168 342.244L281.081 335.976C280.602 335.71 280.075 335.541 279.531 335.48C278.987 335.419 278.436 335.466 277.91 335.618C277.384 335.771 276.894 336.026 276.467 336.369C276.04 336.713 275.685 337.137 275.422 337.618V337.618Z" fill="white"/>
<path d="M252.788 325.183C252.549 325.678 252.409 326.216 252.377 326.765C252.345 327.315 252.421 327.865 252.601 328.385C252.782 328.904 253.062 329.384 253.428 329.795C253.793 330.206 254.236 330.541 254.73 330.781L266.784 337.015C267.265 337.282 267.795 337.451 268.341 337.513C268.888 337.574 269.441 337.528 269.97 337.375C270.499 337.223 270.992 336.967 271.422 336.624C271.852 336.28 272.21 335.855 272.476 335.373V335.373C272.715 334.877 272.855 334.34 272.887 333.791C272.92 333.241 272.843 332.691 272.663 332.171C272.483 331.651 272.202 331.172 271.837 330.761C271.471 330.35 271.029 330.015 270.534 329.775L258.48 323.507C257.502 322.98 256.356 322.861 255.291 323.175C254.225 323.488 253.326 324.21 252.788 325.183V325.183Z" fill="white"/>
<path d="M230.222 312.715C229.982 313.21 229.842 313.748 229.81 314.297C229.778 314.846 229.854 315.397 230.034 315.916C230.215 316.436 230.496 316.915 230.861 317.326C231.226 317.737 231.669 318.072 232.163 318.312L244.25 324.58C245.219 325.108 246.358 325.232 247.418 324.924C248.477 324.617 249.373 323.903 249.909 322.938V322.938C250.149 322.443 250.289 321.905 250.321 321.356C250.353 320.806 250.277 320.256 250.096 319.736C249.916 319.217 249.635 318.737 249.27 318.326C248.905 317.915 248.462 317.58 247.967 317.34L235.913 311.073C235.432 310.806 234.903 310.637 234.356 310.575C233.809 310.513 233.256 310.56 232.727 310.712C232.199 310.865 231.705 311.12 231.275 311.464C230.845 311.808 230.487 312.233 230.222 312.715V312.715Z" fill="white"/>
<path d="M284.563 320.893C284.281 321.351 284.092 321.86 284.007 322.39C283.921 322.921 283.942 323.464 284.066 323.987C284.19 324.51 284.417 325.003 284.732 325.438C285.047 325.874 285.445 326.243 285.902 326.524L296.884 333.228C297.338 333.513 297.843 333.706 298.372 333.793C298.9 333.88 299.441 333.861 299.962 333.736C300.483 333.611 300.974 333.383 301.406 333.066C301.837 332.748 302.201 332.347 302.476 331.887C302.761 331.433 302.954 330.927 303.041 330.398C303.128 329.869 303.108 329.327 302.984 328.806C302.859 328.284 302.631 327.793 302.314 327.361C301.997 326.929 301.597 326.564 301.137 326.289L290.155 319.586C289.234 319.027 288.13 318.854 287.083 319.105C286.036 319.356 285.13 320.011 284.563 320.927V320.893Z" fill="white"/>
<path d="M261.728 305.911C261.168 306.838 260.994 307.948 261.245 309.001C261.496 310.055 262.15 310.968 263.068 311.542L274.05 318.245C274.975 318.806 276.084 318.98 277.137 318.729C278.189 318.479 279.101 317.823 279.675 316.905V316.905C280.235 315.978 280.409 314.868 280.158 313.814C279.908 312.761 279.253 311.848 278.335 311.274L267.32 304.57C266.867 304.287 266.363 304.097 265.837 304.009C265.311 303.922 264.772 303.94 264.253 304.061C263.733 304.183 263.243 304.406 262.81 304.717C262.376 305.029 262.009 305.423 261.728 305.877V305.911Z" fill="white"/>
<path d="M238.894 291.13C238.335 292.051 238.162 293.156 238.413 294.204C238.664 295.253 239.318 296.159 240.233 296.727L251.215 303.431C252.141 303.992 253.249 304.166 254.302 303.915C255.355 303.664 256.266 303.008 256.84 302.09V302.09C257.399 301.169 257.572 300.064 257.321 299.016C257.07 297.967 256.416 297.061 255.501 296.493L244.519 289.789C243.593 289.228 242.484 289.054 241.432 289.305C240.379 289.556 239.467 290.212 238.894 291.13V291.13Z" fill="white"/>
<path d="M293.135 306.179C292.809 306.606 292.571 307.093 292.434 307.612C292.296 308.131 292.262 308.672 292.333 309.204C292.405 309.737 292.581 310.25 292.85 310.714C293.12 311.178 293.478 311.585 293.905 311.911L304.15 319.72C304.575 320.05 305.061 320.292 305.58 320.432C306.099 320.572 306.641 320.607 307.174 320.536C307.707 320.464 308.22 320.287 308.684 320.014C309.148 319.742 309.553 319.38 309.876 318.949V318.949C310.522 318.089 310.804 317.009 310.66 315.942C310.516 314.875 309.957 313.908 309.106 313.251L298.86 305.408C298.433 305.082 297.947 304.844 297.429 304.706C296.91 304.569 296.369 304.535 295.838 304.607C295.306 304.678 294.793 304.854 294.33 305.124C293.866 305.393 293.46 305.752 293.135 306.179V306.179Z" fill="white"/>
<path d="M271.84 289.722C271.515 290.146 271.278 290.631 271.141 291.147C271.004 291.663 270.97 292.202 271.042 292.731C271.113 293.261 271.289 293.771 271.558 294.232C271.827 294.694 272.185 295.097 272.61 295.42L282.855 303.263C283.282 303.589 283.768 303.827 284.287 303.965C284.805 304.102 285.346 304.136 285.878 304.065C286.409 303.993 286.922 303.817 287.385 303.548C287.849 303.278 288.256 302.919 288.581 302.492V302.492C288.906 302.065 289.144 301.578 289.282 301.059C289.419 300.54 289.453 299.999 289.382 299.467C289.31 298.935 289.134 298.422 288.865 297.957C288.595 297.493 288.237 297.086 287.81 296.761L277.565 288.951C277.14 288.621 276.654 288.379 276.135 288.239C275.616 288.099 275.074 288.064 274.541 288.136C274.008 288.207 273.495 288.385 273.031 288.657C272.567 288.929 272.162 289.292 271.84 289.722V289.722Z" fill="white"/>
<path d="M250.579 273.232C249.918 274.09 249.624 275.175 249.762 276.25C249.901 277.325 250.459 278.3 251.316 278.963L261.594 286.806C262.453 287.454 263.533 287.736 264.598 287.591C265.664 287.447 266.63 286.888 267.286 286.035V286.035C267.616 285.61 267.858 285.123 267.998 284.604C268.138 284.084 268.173 283.541 268.101 283.008C268.029 282.475 267.852 281.961 267.58 281.496C267.308 281.032 266.946 280.627 266.516 280.304L256.271 272.461C255.412 271.813 254.332 271.531 253.266 271.676C252.201 271.82 251.235 272.379 250.579 273.232Z" fill="white"/>
<path d="M254.228 244.575C246.394 259.59 217.398 259.926 189.541 245.379C161.684 230.833 145.345 206.868 153.146 191.752C160.947 176.635 189.976 176.367 217.833 190.947C245.69 205.527 262.03 229.559 254.228 244.575Z" fill="#D1D1D1"/>
<path d="M248.369 241.525C241.472 254.931 215.858 255.132 191.182 242.228C166.505 229.324 152.075 208.175 158.972 194.902C165.869 181.629 191.517 181.294 216.193 194.165C240.869 207.035 255.333 228.252 248.369 241.525Z" fill="#211049"/>
<g style="mix-blend-mode:multiply" opacity="0.5">
<g style="mix-blend-mode:multiply" opacity="0.5">
<path d="M210.903 208.946C229.954 219.001 242.878 233.782 244.586 246.183C246.141 244.895 247.427 243.312 248.369 241.525C255.3 228.118 240.869 207.035 216.193 194.165C191.517 181.294 165.97 181.629 158.972 194.902C157.442 198.017 156.915 201.53 157.466 204.957C167.51 196.544 189.541 197.818 210.903 208.946Z" fill="#A0A0A0"/>
</g>
</g>
<path d="M140.892 256.674C140.455 257.64 139.831 258.51 139.057 259.234C138.283 259.958 137.373 260.522 136.38 260.893C135.388 261.263 134.332 261.434 133.273 261.395C132.214 261.355 131.174 261.106 130.211 260.663L91.2717 240.318C89.4282 239.222 88.0916 237.441 87.5524 235.364C87.0132 233.286 87.315 231.08 88.3923 229.224V229.224C88.8358 228.259 89.4647 227.392 90.2433 226.671C91.022 225.95 91.9351 225.39 92.9302 225.023C93.9253 224.655 94.9832 224.488 96.043 224.53C97.1028 224.572 98.1435 224.823 99.1063 225.269L138.146 245.614C139.989 246.703 141.323 248.48 141.857 250.554C142.391 252.628 142.08 254.83 140.992 256.674H140.892Z" fill="#4B358E"/>
<path d="M103.76 278.93C103.33 279.762 102.739 280.5 102.022 281.102C101.305 281.705 100.476 282.159 99.5829 282.439C98.6898 282.72 97.7498 282.82 96.8176 282.736C95.8854 282.651 94.9793 282.383 94.1511 281.946L3.74985 234.821C2.91888 234.39 2.18127 233.798 1.57957 233.081C0.977877 232.363 0.523964 231.533 0.243891 230.639C-0.0361816 229.745 -0.136963 228.804 -0.0524272 227.871C0.0321084 226.938 0.300224 226.031 0.736393 225.202L18.2809 191.45C19.1642 189.774 20.6741 188.516 22.4809 187.951C24.2876 187.386 26.2443 187.559 27.9237 188.433L127.031 218.599C128.702 219.476 129.958 220.982 130.523 222.785C131.088 224.588 130.915 226.542 130.044 228.218L103.76 278.93Z" fill="#211049"/>
<path d="M111.361 264.316C110.477 265.991 108.969 267.251 107.165 267.822C105.36 268.393 103.403 268.229 101.718 267.366L11.3167 220.241C10.4858 219.81 9.74816 219.218 9.14647 218.501C8.54477 217.783 8.09086 216.953 7.81079 216.059C7.53071 215.165 7.42993 214.224 7.51447 213.291C7.599 212.358 7.86712 211.451 8.30329 210.622L25.8813 176.87C26.3092 176.035 26.8982 175.294 27.6139 174.688C28.3295 174.082 29.1581 173.624 30.0514 173.341C30.9448 173.057 31.8852 172.954 32.8188 173.036C33.7524 173.118 34.6604 173.385 35.4906 173.82L134.564 203.985C136.244 204.864 137.507 206.373 138.079 208.182C138.65 209.991 138.481 211.953 137.611 213.638L111.361 264.316Z" fill="#4B358E"/>
<path d="M52.3324 189.908C51.9948 190.94 51.2637 191.798 50.2982 192.294C49.3327 192.789 48.2106 192.884 47.176 192.556L34.8884 188.601C33.8673 188.27 33.0173 187.55 32.5224 186.597C32.0274 185.643 31.9271 184.533 32.2432 183.506V183.506C32.4066 182.993 32.6701 182.516 33.0181 182.105C33.3662 181.693 33.792 181.355 34.2713 181.109C34.7505 180.863 35.2736 180.714 35.8105 180.671C36.3474 180.628 36.8874 180.692 37.3996 180.859L49.6537 184.78C50.1661 184.94 50.6423 185.2 51.0543 185.545C51.4664 185.889 51.8065 186.312 52.0553 186.788C52.304 187.264 52.4565 187.785 52.504 188.321C52.5516 188.856 52.4933 189.395 52.3324 189.908V189.908Z" fill="white"/>
<path d="M45.5019 203.248C45.2908 203.741 44.9845 204.186 44.6003 204.559C44.216 204.933 43.7615 205.226 43.2634 205.422C42.7652 205.619 42.2333 205.714 41.698 205.703C41.1627 205.693 40.6348 205.576 40.1449 205.36L28.3256 200.232C27.3379 199.797 26.5602 198.991 26.1595 197.989C25.7587 196.986 25.7674 195.865 26.1832 194.869V194.869C26.3943 194.376 26.7005 193.931 27.0848 193.557C27.469 193.184 27.9236 192.891 28.4217 192.695C28.9198 192.498 29.4518 192.403 29.9871 192.413C30.5223 192.424 31.0503 192.541 31.5402 192.757L43.3925 197.885C43.8845 198.097 44.3301 198.404 44.7029 198.788C45.0757 199.173 45.3683 199.628 45.5644 200.126C45.7606 200.625 45.8564 201.158 45.8456 201.693C45.8349 202.229 45.7179 202.758 45.5019 203.248V203.248Z" fill="white"/>
<path d="M39.3075 219.169C38.7652 220.137 37.8611 220.85 36.7939 221.152C35.7267 221.454 34.5838 221.319 33.6157 220.777L21.5623 214.476C20.573 213.973 19.8193 213.102 19.4627 212.05C19.1061 210.998 19.1747 209.848 19.6536 208.845C20.1959 207.877 21.1 207.164 22.1672 206.862C23.2344 206.56 24.3777 206.695 25.3458 207.237L37.3992 213.571C38.3923 214.062 39.1508 214.926 39.5086 215.975C39.8663 217.024 39.7938 218.173 39.3075 219.169V219.169Z" fill="white"/>
<path d="M62.4438 230.531C61.9008 231.498 60.9994 232.213 59.9342 232.52C58.8691 232.828 57.7256 232.703 56.7516 232.173L44.6982 225.839C43.705 225.348 42.9465 224.484 42.5888 223.435C42.2311 222.385 42.3035 221.237 42.7899 220.241V220.241C43.0551 219.758 43.4135 219.333 43.8444 218.991C44.2752 218.648 44.7697 218.394 45.2994 218.244C45.829 218.095 46.383 218.052 46.9293 218.118C47.4757 218.185 48.0034 218.36 48.4816 218.632L60.5351 224.934C61.5219 225.431 62.2749 226.295 62.6318 227.342C62.9886 228.389 62.9211 229.534 62.4438 230.531V230.531Z" fill="white"/>
<path d="M85.5466 241.927C85.0044 242.895 84.1002 243.608 83.033 243.91C81.9658 244.212 80.8226 244.077 79.8545 243.536L67.8346 237.201C67.3399 236.961 66.8973 236.626 66.532 236.215C66.1667 235.804 65.8859 235.325 65.7056 234.805C65.5252 234.285 65.4487 233.735 65.4808 233.186C65.5129 232.636 65.6531 232.099 65.8927 231.604V231.604C66.4477 230.639 67.3575 229.931 68.4276 229.631C69.4977 229.33 70.643 229.461 71.618 229.995L83.6379 236.296C84.134 236.539 84.577 236.877 84.9417 237.292C85.3065 237.707 85.5859 238.19 85.7633 238.714C85.9407 239.237 86.0126 239.79 85.9754 240.342C85.9382 240.893 85.7927 241.432 85.5466 241.927V241.927Z" fill="white"/>
<path d="M108.682 253.289C108.417 253.772 108.058 254.197 107.628 254.54C107.197 254.882 106.702 255.136 106.173 255.286C105.643 255.435 105.089 255.478 104.543 255.412C103.996 255.345 103.469 255.17 102.99 254.898L90.9369 248.597C89.9477 248.093 89.1943 247.222 88.8377 246.17C88.4812 245.118 88.5493 243.968 89.0282 242.966V242.966C89.5705 241.997 90.4746 241.284 91.5418 240.982C92.609 240.681 93.7523 240.815 94.7204 241.357L106.774 247.692C107.761 248.189 108.513 249.053 108.87 250.1C109.227 251.147 109.159 252.292 108.682 253.289V253.289Z" fill="white"/>
<path d="M70.8479 213.404C70.6368 213.896 70.3301 214.342 69.9459 214.715C69.5616 215.088 69.1071 215.381 68.609 215.578C68.1108 215.774 67.5789 215.87 67.0436 215.859C66.5083 215.848 65.9808 215.731 65.4909 215.515L53.6381 210.387C52.6564 209.946 51.8858 209.138 51.4916 208.136C51.0974 207.134 51.1108 206.017 51.5288 205.024V205.024C51.963 204.035 52.7675 203.257 53.7693 202.856C54.7712 202.455 55.8901 202.463 56.8858 202.879L68.7385 208.041C69.7262 208.475 70.5022 209.282 70.8974 210.287C71.2925 211.292 71.2748 212.412 70.8479 213.404V213.404Z" fill="white"/>
<path d="M96.1934 223.559C95.7599 224.548 94.9532 225.325 93.9496 225.721C92.946 226.116 91.8269 226.098 90.8364 225.671L78.9837 220.543C78.4917 220.331 78.0465 220.025 77.6737 219.64C77.3009 219.255 77.0079 218.8 76.8118 218.302C76.6156 217.803 76.5202 217.27 76.531 216.735C76.5417 216.199 76.6583 215.67 76.8743 215.18V215.18C77.3016 214.185 78.1057 213.401 79.11 212.999C80.1142 212.597 81.237 212.61 82.2317 213.035L94.0841 218.197C95.0717 218.631 95.8481 219.438 96.2433 220.443C96.6385 221.447 96.6204 222.568 96.1934 223.559Z" fill="white"/>
<path d="M121.405 233.715C120.979 234.701 120.178 235.478 119.18 235.874C118.182 236.27 117.068 236.253 116.082 235.827L104.33 230.799C103.838 230.588 103.393 230.281 103.02 229.896C102.647 229.511 102.354 229.057 102.158 228.558C101.962 228.059 101.866 227.527 101.877 226.991C101.888 226.455 102.004 225.927 102.22 225.436V225.436C102.431 224.944 102.738 224.498 103.122 224.125C103.507 223.752 103.961 223.458 104.459 223.262C104.957 223.066 105.489 222.97 106.024 222.981C106.56 222.992 107.088 223.109 107.577 223.325L119.397 228.486C119.889 228.698 120.334 229.005 120.707 229.389C121.079 229.774 121.372 230.229 121.569 230.727C121.765 231.226 121.86 231.759 121.849 232.294C121.839 232.83 121.722 233.359 121.506 233.849L121.405 233.715Z" fill="white"/>
<path d="M77.8789 197.919C77.7191 198.431 77.4594 198.907 77.1146 199.318C76.7698 199.729 76.3466 200.068 75.87 200.314C75.3935 200.561 74.8731 200.71 74.3386 200.753C73.804 200.796 73.2659 200.733 72.756 200.567L60.4684 196.645C59.4396 196.314 58.5834 195.589 58.0876 194.628C57.5919 193.667 57.4969 192.548 57.8232 191.517V191.517C58.1536 190.487 58.8781 189.63 59.8382 189.134C60.7983 188.638 61.9159 188.542 62.946 188.869L75.2337 192.791C76.2625 193.121 77.1187 193.847 77.6144 194.808C78.1102 195.769 78.2052 196.888 77.8789 197.919V197.919Z" fill="white"/>
<path d="M103.66 205.963C103.33 206.993 102.605 207.85 101.645 208.346C100.685 208.842 99.5678 208.937 98.5377 208.611L86.2496 204.689C85.2208 204.358 84.365 203.633 83.8693 202.672C83.3735 201.711 83.2781 200.592 83.6044 199.561V199.561C83.9348 198.531 84.6597 197.674 85.6198 197.178C86.5799 196.682 87.6972 196.587 88.7273 196.913L101.015 200.835C102.044 201.165 102.9 201.891 103.396 202.852C103.891 203.813 103.986 204.932 103.66 205.963V205.963Z" fill="white"/>
<path d="M129.341 214.04C129.181 214.553 128.921 215.029 128.576 215.44C128.232 215.851 127.808 216.19 127.332 216.436C126.855 216.682 126.335 216.831 125.8 216.875C125.266 216.918 124.728 216.855 124.218 216.688L111.93 212.767C110.901 212.436 110.045 211.711 109.549 210.75C109.054 209.788 108.959 208.67 109.285 207.639V207.639C109.615 206.609 110.34 205.752 111.3 205.256C112.26 204.759 113.378 204.664 114.408 204.991L126.695 208.946C127.204 209.106 127.675 209.365 128.083 209.708C128.492 210.051 128.828 210.471 129.074 210.944C129.319 211.417 129.469 211.934 129.515 212.466C129.561 212.997 129.502 213.532 129.341 214.04V214.04Z" fill="white"/>
<path d="M209.094 217.56C208.91 217.993 208.637 218.383 208.292 218.703C207.947 219.024 207.538 219.268 207.093 219.42C206.648 219.571 206.175 219.628 205.707 219.584C205.238 219.541 204.784 219.399 204.374 219.169V219.169C203.957 218.965 203.585 218.681 203.278 218.333C202.972 217.985 202.737 217.58 202.588 217.14C202.439 216.701 202.378 216.237 202.408 215.774C202.439 215.311 202.561 214.858 202.767 214.443L228.146 162.458C228.564 161.614 229.297 160.968 230.187 160.661C231.076 160.354 232.051 160.409 232.9 160.815V160.815C233.317 161.019 233.689 161.303 233.995 161.651C234.302 161.999 234.536 162.404 234.686 162.844C234.835 163.283 234.896 163.747 234.866 164.21C234.835 164.673 234.713 165.126 234.508 165.541L209.094 217.56Z" fill="#4B358E"/>
<path d="M246.126 161.687C244.967 163.924 243.172 165.767 240.967 166.982C238.762 168.198 236.246 168.731 233.739 168.515C231.231 168.298 228.843 167.342 226.878 165.768C224.913 164.193 223.459 162.07 222.7 159.667C221.941 157.265 221.91 154.691 222.612 152.271C223.315 149.851 224.718 147.695 226.646 146.074C228.573 144.453 230.937 143.441 233.439 143.165C235.941 142.889 238.469 143.363 240.702 144.526C243.693 146.083 245.943 148.765 246.96 151.983C247.977 155.201 247.677 158.691 246.126 161.687V161.687Z" fill="#211049"/>
<g style="mix-blend-mode:multiply" opacity="0.5">
<g style="mix-blend-mode:multiply" opacity="0.5">
<path d="M237.588 161.217C236.106 160.447 234.792 159.391 233.719 158.111C232.646 156.83 231.836 155.351 231.335 153.757C230.834 152.163 230.653 150.485 230.801 148.821C230.949 147.156 231.423 145.537 232.197 144.057L232.632 143.286C230.548 143.657 228.589 144.544 226.934 145.867C225.28 147.19 223.983 148.907 223.16 150.86C222.338 152.813 222.017 154.942 222.227 157.051C222.437 159.16 223.17 161.183 224.361 162.936C225.552 164.689 227.162 166.115 229.044 167.086C230.927 168.056 233.022 168.54 235.139 168.492C237.256 168.445 239.327 167.868 241.164 166.814C243.001 165.76 244.546 164.262 245.657 162.458C242.904 162.945 240.067 162.509 237.588 161.217Z" fill="#A0A0A0"/>
</g>
</g>
<path d="M268.525 158.167C267.83 157.717 267.264 157.093 266.884 156.358C262.342 147.711 255.727 140.329 247.632 134.873C239.812 129.554 230.813 126.229 221.416 125.187C220.084 125.035 218.866 124.361 218.031 123.311C217.196 122.261 216.812 120.923 216.963 119.589C217.114 118.256 217.787 117.037 218.836 116.201C219.885 115.365 221.222 114.98 222.554 115.131C233.712 116.434 244.386 120.434 253.655 126.787C262.924 133.14 270.509 141.655 275.757 151.598C276.286 152.586 276.468 153.722 276.273 154.826C276.079 155.929 275.519 156.935 274.684 157.682C273.849 158.428 272.788 158.872 271.671 158.942C270.554 159.012 269.446 158.704 268.525 158.067V158.167Z" fill="white"/>
<path d="M320.824 140.739C320.137 140.28 319.573 139.658 319.183 138.929C309.105 119.725 294.412 103.334 276.427 91.2337C259.069 79.419 239.095 72.0213 218.235 69.6822C216.903 69.5311 215.686 68.8565 214.851 67.8068C214.016 66.757 213.631 65.4182 213.782 64.0848C213.933 62.7514 214.607 61.5327 215.655 60.6967C216.704 59.8607 218.042 59.4759 219.374 59.6271C242.174 62.2708 263.985 70.4416 282.918 83.431C301.851 96.4204 317.333 113.836 328.022 134.169C328.325 134.748 328.51 135.38 328.568 136.031C328.626 136.681 328.554 137.337 328.358 137.959C328.162 138.582 327.845 139.16 327.426 139.66C327.006 140.16 326.492 140.572 325.913 140.873C325.134 141.32 324.247 141.545 323.349 141.521C322.452 141.498 321.578 141.227 320.824 140.739V140.739Z" fill="white"/>
<path d="M375.199 117.209C374.514 116.757 373.959 116.133 373.591 115.4C358.462 86.639 336.556 62.0047 309.771 43.6309C282.986 25.2571 252.13 13.6978 219.876 9.95458C219.216 9.87975 218.578 9.67561 217.997 9.35382C217.416 9.03204 216.905 8.5989 216.491 8.07913C216.078 7.55937 215.771 6.96315 215.587 6.32454C215.404 5.68593 215.348 5.01745 215.422 4.35722C215.497 3.69699 215.701 3.05795 216.023 2.47661C216.344 1.89527 216.777 1.38301 217.296 0.969066C217.815 0.555123 218.411 0.247617 219.049 0.0640884C219.687 -0.11944 220.355 -0.175393 221.014 -0.100567C254.87 3.82653 287.261 15.9501 315.385 35.2217C343.51 54.4933 366.521 80.3329 382.43 110.506C382.959 111.494 383.141 112.63 382.947 113.734C382.752 114.837 382.193 115.843 381.358 116.59C380.523 117.336 379.462 117.78 378.345 117.85C377.228 117.92 376.12 117.612 375.199 116.975V117.209Z" fill="white"/>
</g>
<defs>
<clipPath id="clip0_306_204">
<rect width="383" height="389" fill="white"/>
</clipPath>
</defs>
</svg>
