<svg width="856" height="358" viewBox="0 0 856 358" fill="none" xmlns="http://www.w3.org/2000/svg">
<path opacity="0.2" d="M139.274 172.335C139.274 172.335 230.783 333.736 460.451 358C460.451 358 394.636 335.473 390.924 320.762C390.924 320.762 707.705 428.661 856 145.624C856 145.624 759.804 277.918 605.165 291.787C605.165 291.787 635.914 283.629 689.409 251.628C689.409 251.628 418.119 340.841 166.232 143.597L139.274 172.335Z" fill="url(#paint0_linear_306_299)"/>
<path d="M190.452 168.519C196.297 184.494 198.192 195.284 217.752 224.732L217.884 224.916L217.7 224.785C188.899 204.205 178.211 201.942 162.415 195.52C146.619 189.099 138.327 170.598 138.327 170.598L151.305 156.071L166.338 143.65C166.338 143.65 184.555 152.492 190.452 168.519Z" fill="#F68F37"/>
<path d="M193.369 200.73C185.736 196.654 177.818 193.136 169.676 190.204C167.307 189.283 164.858 188.335 162.331 187.309C153.986 183.94 144.113 171.519 141.033 166.545L150.563 157.387L160.356 147.991C165.253 151.228 177.916 160.913 181.022 169.361C181.944 171.992 182.813 174.387 183.655 176.808C186.324 185.002 189.57 192.996 193.369 200.73Z" fill="#F1BC02"/>
<path d="M180.944 187.861C177.258 186.072 173.783 184.493 170.413 182.94C167.781 181.756 165.148 180.519 162.305 179.203C157.04 176.729 149.721 168.94 144.851 162.887L156.75 151.439C163.332 156.702 170.834 163.992 172.993 168.94C174.204 171.729 175.336 174.492 176.442 177.15C177.811 180.624 179.285 184.124 180.944 187.861Z" fill="#F9F8A8"/>
<path d="M96.8108 151.44C96.4253 155.205 96.7557 159.009 97.7849 162.651C102.813 181.651 122.321 201.547 122.321 201.547C121.847 201.81 102.682 212.074 78.7249 197.941C67.8759 191.079 59.5585 180.871 55.0315 168.861C54.7061 168.112 54.62 167.28 54.7849 166.479C54.9498 165.678 55.3577 164.948 55.9529 164.388C56.3566 163.994 56.8344 163.684 57.3585 163.477C57.8827 163.269 58.4429 163.167 59.0067 163.177C59.544 163.184 60.0739 163.303 60.5632 163.525C61.0525 163.747 61.4905 164.067 61.8499 164.467L54.4523 136.387L48.8975 115.333C72.196 126.097 96.8108 151.44 96.8108 151.44Z" fill="#E42F28"/>
<path opacity="0.2" d="M121.976 201.336C121.502 201.599 102.337 211.863 78.38 197.731C67.5311 190.868 59.2137 180.66 54.6866 168.651C54.3613 167.901 54.2752 167.069 54.4401 166.268C54.605 165.468 55.0128 164.737 55.6081 164.177C56.0117 163.783 56.4895 163.474 57.0137 163.266C57.5379 163.058 58.0981 162.956 58.6619 162.966C59.557 163.361 60.531 163.782 61.5051 164.256C61.5051 164.256 71.4826 184.941 91.0692 194.836C110.656 204.731 121.634 201.441 121.976 201.336Z" fill="black"/>
<path opacity="0.2" d="M96.8107 151.44C96.4251 155.205 96.7556 159.008 97.7848 162.651C80.9888 157.387 65.6934 146.334 54.3732 136.334L48.8184 115.28C72.1959 126.097 96.8107 151.44 96.8107 151.44Z" fill="black"/>
<path d="M148.62 101.622C152.414 101.366 156.221 101.84 159.835 103.017C178.711 108.728 197.955 128.886 197.955 128.886C198.219 128.439 209.118 109.701 195.928 85.3319C189.427 74.2469 179.507 65.5672 167.654 60.5941C166.906 60.2502 166.072 60.1391 165.259 60.2751C164.447 60.4112 163.695 60.7882 163.1 61.3572C162.29 62.139 161.818 63.2061 161.783 64.331C161.775 64.8686 161.875 65.4023 162.079 65.8999C162.283 66.3975 162.585 66.8486 162.968 67.2259L135.089 58.8308L114.212 52.5411C124.137 76.1736 148.62 101.622 148.62 101.622Z" fill="#E42F28"/>
<path opacity="0.2" d="M198.008 128.86C198.271 128.412 209.17 109.675 195.981 85.3055C189.48 74.2205 179.559 65.5408 167.707 60.5677C166.958 60.2238 166.124 60.1127 165.312 60.2488C164.5 60.3849 163.747 60.7619 163.152 61.3309C162.342 62.1127 161.87 63.1798 161.836 64.3047C162.205 65.2258 162.599 66.1995 163.021 67.1995C163.021 67.1995 183.423 77.9104 192.611 97.7796C201.799 117.649 198.008 128.518 198.008 128.86Z" fill="black"/>
<path opacity="0.2" d="M148.62 101.622C152.414 101.366 156.221 101.84 159.835 103.017C155.149 86.095 144.672 70.4365 135.089 58.8045L114.212 52.5148C124.137 76.1736 148.62 101.622 148.62 101.622Z" fill="black"/>
<path d="M116.003 54.6728C121.454 60.1348 126.604 65.8891 131.43 71.9103C136.028 77.8641 140.089 84.2137 143.566 90.8846C143.698 91.1478 143.829 91.3847 143.934 91.6479L149.621 104.28L155.913 118.254L167.891 144.834L139.275 172.335L136.3 170.888L113.054 159.44L99.2856 152.676C81.6667 144.036 65.6433 132.468 51.8987 118.465L50.714 117.254C34.7582 101.075 21.8299 82.1711 12.5413 61.4361C12.0148 60.2256 11.4883 59.015 11.0144 57.8045C9.82975 54.9359 8.77673 52.12 7.82899 49.4094C7.4341 48.2251 7.03921 47.0672 6.67064 45.9093L6.11774 44.1723C4.10359 37.614 2.55534 30.9217 1.48441 24.1453C0.598459 18.6521 0.105795 13.1027 0.0101635 7.53938C-0.0449839 6.50567 0.124769 5.47229 0.507793 4.51052C0.890817 3.54875 1.478 2.68149 2.22877 1.96851C2.97954 1.25553 3.87608 0.71383 4.85655 0.380732C5.83702 0.0476345 6.87808 -0.0689488 7.90797 0.0390829C20.367 0.809018 32.6573 3.31582 44.4221 7.48674L46.3176 8.14466L49.74 9.40789C52.3726 10.4606 55.2158 11.6185 58.059 12.908L61.5341 14.5133C81.9444 24.5395 100.392 38.141 116.003 54.6728Z" fill="white"/>
<path d="M161.626 130.86L167.891 144.755C166.996 146.281 166.048 147.755 165.074 149.203C164.1 150.65 163.389 151.571 162.442 152.729C159.392 156.76 155.914 160.448 152.069 163.73C148.141 167.084 143.818 169.948 139.196 172.256L125.48 165.519C131.155 162.355 136.507 158.644 141.46 154.44C147.238 149.521 152.417 143.939 156.887 137.808C157.65 136.781 158.387 135.729 159.098 134.676C159.809 133.623 160.836 132.228 161.626 130.86Z" fill="#003557"/>
<path opacity="0.2" d="M152.148 163.808C148.22 167.163 143.897 170.027 139.275 172.335L125.559 165.598L113.054 159.44L99.2855 152.677C81.6666 144.036 65.6433 132.468 51.8987 118.465L50.714 117.254C25.3094 90.9373 12.5149 64.989 6.1177 44.1724C4.10355 37.614 2.5553 30.9217 1.48438 24.1453C6.74958 23.3558 7.40773 21.1715 15.9637 27.9086C15.9637 27.9086 30.4166 87.174 71.1166 117.386C108.368 144.992 111.185 127.912 111.185 127.912L141.539 154.545L152.148 163.808Z" fill="black"/>
<path d="M168.681 171.046C168.865 171.482 168.912 171.965 168.816 172.429C168.719 172.893 168.485 173.317 168.142 173.645C167.8 173.973 167.366 174.189 166.899 174.265C166.431 174.342 165.951 174.274 165.522 174.072C129.561 157.387 93.9416 107.175 80.2257 86.1214C79.9464 85.6646 79.832 85.1259 79.9018 84.595C79.9715 84.0641 80.2212 83.5732 80.609 83.2039C80.9969 82.8346 81.4996 82.6093 82.0334 82.5656C82.5672 82.5218 83.0999 82.6622 83.5427 82.9634C104.156 97.306 153.254 134.518 168.681 171.046Z" fill="#E42F28"/>
<path opacity="0.2" d="M80.5677 83.0947L168.154 173.651C167.808 173.977 167.372 174.191 166.903 174.267C166.433 174.342 165.952 174.274 165.522 174.072C129.56 157.387 93.9413 107.175 80.2255 86.1211C79.9013 85.6625 79.7571 85.1008 79.8202 84.5428C79.8833 83.9848 80.1493 83.4694 80.5677 83.0947Z" fill="black"/>
<path d="M73.5385 44.0146C76.5635 47.1866 78.5823 51.1823 79.3407 55.4987C80.099 59.8152 79.5631 64.2594 77.8003 68.272C76.0375 72.2846 73.1266 75.6862 69.4341 78.0487C65.7416 80.4111 61.4325 81.6289 57.0492 81.5485C52.6659 81.4682 48.4044 80.0934 44.801 77.5972C41.1976 75.1011 38.4134 71.595 36.7989 67.5205C35.1844 63.4461 34.8117 58.9852 35.7278 54.6994C36.644 50.4137 38.8079 46.4946 41.9473 43.4356C44.0445 41.3722 46.5327 39.748 49.2659 38.6581C51.9991 37.5682 54.9224 37.0345 57.8646 37.0884C60.8067 37.1424 63.7085 37.7827 66.4 38.972C69.0914 40.1614 71.5183 41.8757 73.5385 44.0146Z" fill="#003557"/>
<path d="M70.1947 47.0935L70.3527 47.2514C73.4809 50.586 75.1843 55.0089 75.1007 59.5796C75.0172 64.1503 73.1531 68.508 69.9051 71.726L69.7472 71.8839C68.5777 73.0085 67.2576 73.9651 65.8246 74.7262C63.3275 76.0586 60.5465 76.7716 57.7161 76.8052C53.5991 76.8411 49.6004 75.4297 46.4186 72.8177C43.2369 70.2056 41.0746 66.5589 40.3094 62.5149C39.5442 58.4709 40.2248 54.2866 42.2324 50.6933C44.24 47.1001 47.4469 44.3262 51.2926 42.8565C53.5563 42.0216 55.9637 41.6458 58.3743 41.7512C62.841 41.9375 67.0685 43.8199 70.1947 47.0146V47.0935Z" fill="#34C8CB"/>
<path opacity="0.1" d="M66.3776 44.0145C63.9317 42.5885 61.1768 41.7758 58.3482 41.646C55.9376 41.5406 53.5302 41.9164 51.2665 42.7513C48.5501 43.7784 46.1309 45.4629 44.2256 47.6541C42.3204 49.8452 40.9886 52.4746 40.3494 55.3066C39.7103 58.1386 39.7838 61.0849 40.5635 63.8816C41.3431 66.6782 42.8044 69.2379 44.8166 71.3313C45.1588 71.6735 45.5011 72.0155 45.8696 72.3313C43.0872 68.9266 41.6887 64.5997 41.9521 60.2112C42.2155 55.8226 44.1215 51.694 47.2913 48.6462C49.0084 46.9817 51.0522 45.6914 53.2936 44.8567C55.7449 43.9385 58.3694 43.5755 60.978 43.7939C63.5866 44.0124 66.1141 44.8068 68.3784 46.1199C69.3241 46.6817 70.2067 47.3434 71.011 48.0936C70.7741 47.7778 70.4845 47.4883 70.2212 47.1725L70.0632 47.0146C68.9757 45.8529 67.7359 44.8437 66.3776 44.0145Z" fill="black"/>
<path d="M53.4785 47.1199C53.4785 47.1199 63.535 47.3304 67.6682 54.6991C72.1963 62.7521 67.6682 69.0944 60.3496 73.1209C63.0265 72.8809 65.574 71.8601 67.6755 70.1851C69.777 68.5101 71.3399 66.2548 72.17 63.6995C75.961 53.9096 65.9307 43.8566 53.4785 47.1199Z" fill="#02EEED"/>
<path d="M44.3693 7.59199C33.8538 21.9363 20.9293 34.3488 6.17024 44.2776C2.43901 32.4102 0.383272 20.0802 0.0625885 7.6446C0.000848711 6.40619 0.261956 5.17299 0.820361 4.06579C1.37877 2.9586 2.2153 2.0154 3.24801 1.32859C4.61219 0.439379 6.23101 0.0232646 7.85507 0.144338C20.3141 0.914273 32.6045 3.42107 44.3693 7.59199Z" fill="#E42F28"/>
<path opacity="0.2" d="M16.9375 3.98681C15.4633 3.77626 14.4892 3.48677 12.1989 3.092C8.64486 2.46036 7.11795 3.09202 6.93367 5.46067C6.74939 9.85583 24.5457 15.4879 31.5484 10.9085C37.1032 7.35557 23.3347 4.90795 16.9375 3.98681Z" fill="black"/>
<path opacity="0.2" d="M44.3693 7.59202C33.8538 21.9363 20.9293 34.3488 6.17024 44.2776C2.43901 32.4102 0.383272 20.0802 0.0625885 7.64463C0.000848711 6.40621 0.261956 5.17302 0.820361 4.06582C1.37877 2.95863 2.2153 2.01543 3.24801 1.32861C3.24801 2.85499 2.48455 13.9607 8.75014 20.4346C15.4896 27.4085 30.3902 24.8295 44.3693 7.59202Z" fill="black"/>
<defs>
<linearGradient id="paint0_linear_306_299" x1="128.96" y1="244.808" x2="840.342" y2="243.897" gradientUnits="userSpaceOnUse">
<stop stop-color="white"/>
<stop offset="0.35" stop-color="white" stop-opacity="0.62"/>
<stop offset="0.61" stop-color="white" stop-opacity="0.35"/>
<stop offset="0.87" stop-color="white" stop-opacity="0.1"/>
<stop offset="1" stop-color="white" stop-opacity="0"/>
</linearGradient>
</defs>
</svg>
