<svg width="188" height="46" viewBox="0 0 188 46" fill="none" xmlns="http://www.w3.org/2000/svg">
<path d="M8.92834 15.4947L14.6584 12.1827L11.46 6.63365H41.54L26.5049 32.7422L23.3065 27.1835L17.5765 30.5052L26.5049 46L53 0H0L8.92834 15.4947Z" fill="white"/>
<path d="M71 14.7V31.5H67.712V20.604L62.984 28.404H62.6L57.872 20.628V31.5H54.56V14.7H57.968L62.792 22.644L67.592 14.7H71ZM76.6023 26.772C77.0183 28.276 78.1463 29.028 79.9863 29.028C81.1703 29.028 82.0663 28.628 82.6743 27.828L85.1703 29.268C83.9863 30.98 82.2423 31.836 79.9383 31.836C77.9543 31.836 76.3623 31.236 75.1623 30.036C73.9623 28.836 73.3623 27.324 73.3623 25.5C73.3623 23.692 73.9543 22.188 75.1383 20.988C76.3223 19.772 77.8423 19.164 79.6983 19.164C81.4583 19.164 82.9063 19.772 84.0423 20.988C85.1943 22.204 85.7703 23.708 85.7703 25.5C85.7703 25.9 85.7303 26.324 85.6503 26.772H76.6023ZM76.5543 24.372H82.6743C82.4983 23.556 82.1303 22.948 81.5703 22.548C81.0263 22.148 80.4023 21.948 79.6983 21.948C78.8663 21.948 78.1783 22.164 77.6343 22.596C77.0903 23.012 76.7303 23.604 76.5543 24.372ZM94.4441 22.476H91.7321V27.468C91.7321 27.884 91.8361 28.188 92.0441 28.38C92.2521 28.572 92.5561 28.684 92.9561 28.716C93.3561 28.732 93.8521 28.724 94.4441 28.692V31.5C92.3161 31.74 90.8121 31.54 89.9321 30.9C89.0681 30.26 88.6361 29.116 88.6361 27.468V22.476H86.5481V19.5H88.6361V17.076L91.7321 16.14V19.5H94.4441V22.476ZM105.372 19.5H108.468V31.5H105.372V30.084C104.444 31.252 103.14 31.836 101.46 31.836C99.8599 31.836 98.4839 31.228 97.3319 30.012C96.1959 28.78 95.6279 27.276 95.6279 25.5C95.6279 23.724 96.1959 22.228 97.3319 21.012C98.4839 19.78 99.8599 19.164 101.46 19.164C103.14 19.164 104.444 19.748 105.372 20.916V19.5ZM99.6599 27.948C100.284 28.572 101.076 28.884 102.036 28.884C102.996 28.884 103.788 28.572 104.412 27.948C105.052 27.308 105.372 26.492 105.372 25.5C105.372 24.508 105.052 23.7 104.412 23.076C103.788 22.436 102.996 22.116 102.036 22.116C101.076 22.116 100.284 22.436 99.6599 23.076C99.0359 23.7 98.7239 24.508 98.7239 25.5C98.7239 26.492 99.0359 27.308 99.6599 27.948ZM117.683 14.7C119.299 14.7 120.659 15.244 121.763 16.332C122.867 17.42 123.419 18.756 123.419 20.34C123.419 21.924 122.867 23.26 121.763 24.348C120.659 25.436 119.299 25.98 117.683 25.98H114.731V31.5H111.419V14.7H117.683ZM117.683 22.884C118.387 22.884 118.971 22.644 119.435 22.164C119.899 21.668 120.131 21.06 120.131 20.34C120.131 19.604 119.899 18.996 119.435 18.516C118.971 18.036 118.387 17.796 117.683 17.796H114.731V22.884H117.683ZM128.27 21.564C128.558 20.796 129.03 20.22 129.686 19.836C130.358 19.452 131.102 19.26 131.918 19.26V22.716C130.974 22.604 130.126 22.796 129.374 23.292C128.638 23.788 128.27 24.612 128.27 25.764V31.5H125.174V19.5H128.27V21.564ZM143.507 30.012C142.275 31.228 140.771 31.836 138.995 31.836C137.219 31.836 135.715 31.228 134.483 30.012C133.267 28.78 132.659 27.276 132.659 25.5C132.659 23.724 133.267 22.228 134.483 21.012C135.715 19.78 137.219 19.164 138.995 19.164C140.771 19.164 142.275 19.78 143.507 21.012C144.739 22.228 145.355 23.724 145.355 25.5C145.355 27.276 144.739 28.78 143.507 30.012ZM136.667 27.876C137.291 28.5 138.067 28.812 138.995 28.812C139.923 28.812 140.699 28.5 141.323 27.876C141.947 27.252 142.259 26.46 142.259 25.5C142.259 24.54 141.947 23.748 141.323 23.124C140.699 22.5 139.923 22.188 138.995 22.188C138.067 22.188 137.291 22.5 136.667 23.124C136.059 23.748 135.755 24.54 135.755 25.5C135.755 26.46 136.059 27.252 136.667 27.876ZM149.15 18.06C148.622 18.06 148.166 17.876 147.782 17.508C147.414 17.124 147.23 16.676 147.23 16.164C147.23 15.652 147.414 15.204 147.782 14.82C148.166 14.436 148.622 14.244 149.15 14.244C149.662 14.244 150.102 14.436 150.47 14.82C150.854 15.204 151.046 15.652 151.046 16.164C151.046 16.676 150.854 17.124 150.47 17.508C150.102 17.876 149.662 18.06 149.15 18.06ZM147.59 31.74V19.5H150.686V31.74C150.686 33.5 150.254 34.78 149.39 35.58C148.542 36.396 147.23 36.748 145.454 36.636V33.66C146.19 33.708 146.726 33.58 147.062 33.276C147.414 32.972 147.59 32.46 147.59 31.74ZM156.126 26.772C156.542 28.276 157.67 29.028 159.51 29.028C160.694 29.028 161.59 28.628 162.198 27.828L164.694 29.268C163.51 30.98 161.766 31.836 159.462 31.836C157.478 31.836 155.886 31.236 154.686 30.036C153.486 28.836 152.886 27.324 152.886 25.5C152.886 23.692 153.478 22.188 154.662 20.988C155.846 19.772 157.366 19.164 159.222 19.164C160.982 19.164 162.43 19.772 163.566 20.988C164.718 22.204 165.294 23.708 165.294 25.5C165.294 25.9 165.254 26.324 165.174 26.772H156.126ZM156.078 24.372H162.198C162.022 23.556 161.654 22.948 161.094 22.548C160.55 22.148 159.926 21.948 159.222 21.948C158.39 21.948 157.702 22.164 157.158 22.596C156.614 23.012 156.254 23.604 156.078 24.372ZM173.073 31.836C171.265 31.836 169.753 31.228 168.537 30.012C167.337 28.796 166.737 27.292 166.737 25.5C166.737 23.708 167.337 22.204 168.537 20.988C169.753 19.772 171.265 19.164 173.073 19.164C174.241 19.164 175.305 19.444 176.265 20.004C177.225 20.564 177.953 21.316 178.449 22.26L175.785 23.82C175.545 23.324 175.177 22.932 174.681 22.644C174.201 22.356 173.657 22.212 173.049 22.212C172.121 22.212 171.353 22.524 170.745 23.148C170.137 23.756 169.833 24.54 169.833 25.5C169.833 26.444 170.137 27.228 170.745 27.852C171.353 28.46 172.121 28.764 173.049 28.764C173.673 28.764 174.225 28.628 174.705 28.356C175.201 28.068 175.569 27.676 175.809 27.18L178.497 28.716C177.969 29.66 177.225 30.42 176.265 30.996C175.305 31.556 174.241 31.836 173.073 31.836ZM186.999 22.476H184.287V27.468C184.287 27.884 184.391 28.188 184.599 28.38C184.807 28.572 185.111 28.684 185.511 28.716C185.911 28.732 186.407 28.724 186.999 28.692V31.5C184.871 31.74 183.367 31.54 182.487 30.9C181.623 30.26 181.191 29.116 181.191 27.468V22.476H179.103V19.5H181.191V17.076L184.287 16.14V19.5H186.999V22.476Z" fill="white"/>
</svg>
