<svg width="540" height="330" viewBox="0 0 540 330" fill="none" xmlns="http://www.w3.org/2000/svg">
<path d="M427.057 164.817C427.067 195.789 417.866 226.069 400.618 251.826C383.37 277.583 358.849 297.661 330.156 309.521C301.464 321.38 269.889 324.489 239.425 318.453C208.962 312.416 180.977 297.507 159.011 275.61C137.045 253.713 122.085 225.811 116.022 195.435C109.958 165.059 113.065 133.572 124.949 104.956C136.832 76.3404 156.959 51.8819 182.783 34.6736C208.608 17.4653 238.969 8.28028 270.029 8.28027C311.667 8.28027 351.6 24.7709 381.047 54.1257C410.494 83.4806 427.044 123.296 427.057 164.817Z" fill="url(#paint0_radial_306_270)"/>
<g opacity="0.5">
<path opacity="0.5" d="M201.183 23.9486C188.756 40.7519 178.137 60.1632 161.426 72.9581C153.598 78.9268 145.629 84.738 137.748 90.6541C133.904 93.5247 129.744 96.3952 127.216 100.491C124.109 105.742 122.214 112.743 120.458 118.467C133.518 96.0451 157.565 86.3833 176.469 70.1926C186.251 61.6331 194.903 51.8698 202.219 41.137C209.24 30.88 217.736 20.1329 228.355 13.6392C218.994 16.2194 209.897 19.6711 201.183 23.9486V23.9486Z" fill="url(#paint1_radial_306_270)"/>
<path opacity="0.5" d="M249.067 9.31579C231.743 15.2494 218.754 30.2148 207.643 44.1125C196.532 58.0102 185.404 71.6629 170.08 81.2372C156.477 89.7439 144.576 96.9903 133.465 109.243C127.615 115.48 122.632 122.474 118.651 130.037C114 139.366 113.824 151.408 113.666 161.735C124.724 146.892 131.991 129.809 143.049 115.054C148.719 107.475 155.564 100.001 163.709 95.0299C171.151 90.479 179.682 87.1884 187.229 82.9876C202.816 74.3234 214.84 60.2332 226.846 47.2631C232.937 40.6644 237.974 32.9104 244.521 26.8017C252.441 19.4692 261.223 13.1216 270.675 7.89796C263.448 7.8798 256.229 8.35354 249.067 9.31579Z" fill="url(#paint2_radial_306_270)"/>
<path opacity="0.5" d="M333.127 21.0083C304.604 26.6794 302.48 53.6696 284.682 71.2255C275.332 80.3472 263.88 87.0424 251.332 90.7243C237.588 94.8726 223.95 96.9205 211.821 105.252C200.289 113.181 191.547 119.867 186.299 133.415C182.42 143.427 180.279 154.209 175.487 163.801C169.677 175.441 160.497 184.805 150.211 192.594C144.945 196.55 139.486 200.103 133.904 203.516C130.903 205.354 120.757 211.043 120.757 211.043C121.429 213.38 122.219 215.682 123.127 217.939C130.359 213.738 137.854 209.94 145.138 205.844C151.352 202.343 154.915 198.178 159.795 193.014C166.271 186.188 173.591 180.219 177.909 172.01C183.175 161.928 185.808 151.881 188.546 141.099C191.776 128.287 203.36 119.815 213.313 112.271C236.289 94.7676 271.359 104.167 289.193 78.1394C297.144 66.5521 298.636 53.2495 308.501 42.87C312.942 38.1791 317.277 33.2957 323.21 30.3201C329.143 27.3445 335.813 26.9594 342.114 25.2966C339.201 23.7563 336.182 22.3211 333.127 21.0083Z" fill="url(#paint3_radial_306_270)"/>
<path opacity="0.5" d="M348.328 28.6221C339.288 32.2803 328.493 32.1227 319.84 37.3738C310.256 43.2753 303.217 52.5219 300.093 63.3138C297.179 72.7131 293.423 82.5675 287.174 90.8466C281.698 98.128 270.657 100.876 261.688 103.502C250.015 107.002 237.114 106.005 225.845 111.343C216.823 115.614 207.275 124.226 200.833 131.91C195.216 138.648 195.128 142.867 192.688 150.726C189.722 160.318 187.177 170.347 183.104 179.116C179.032 187.885 172.117 195.219 164.095 201.363C158.935 205.301 153.563 207.262 147.859 210.115C141.773 213.184 136.085 216.981 130.92 221.422C129.168 222.958 127.783 224.866 126.866 227.006C127.954 229.754 131.938 237.508 132.746 238.908C132.746 238.908 133.448 238.295 138.995 236.93C142.244 236.166 145.44 235.189 148.561 234.007C159.321 229.876 169.115 220.792 176.856 212.425C183.965 204.741 188.072 196.795 192.952 187.745C198.323 177.786 199.288 167.056 203.115 156.239C206.169 147.61 211.189 139.401 218.701 133.94C229.233 126.238 240.8 127.586 253.07 126.273C265.005 124.996 277.082 121.443 286.104 113.181C296.144 103.992 300.672 90.094 307.43 78.2792C320.086 56.1549 336.989 39.8943 363.967 38.7915C358.959 35.0986 353.737 31.7029 348.328 28.6221V28.6221Z" fill="url(#paint4_radial_306_270)"/>
<path opacity="0.5" d="M371.076 44.4626C357.543 44.2175 341.237 52.1116 330.705 59.9881C320.525 67.5671 315.224 79.2418 308.378 89.3063C300.989 100.176 298.672 116.367 288.596 125.118C280.241 132.365 266.656 134.238 256.001 136.093C242.398 138.438 228.478 137.843 218.245 148.835C207.099 160.843 208.363 175.388 203.729 190.003C199.095 204.619 188.406 215.873 177.874 226.323C166.878 237.006 153.277 244.644 138.416 248.482C142.324 254.559 146.646 260.36 151.352 265.846C154.476 269.486 154.862 269.539 159.233 267.596C162.744 266.073 166.254 264.48 169.765 262.747C181.901 256.563 192.856 248.305 202.132 238.348C218.105 221.054 213.33 194.029 220.545 173.358C224.511 161.98 233.885 158.13 244.89 157.605C257.581 157.097 271.605 155.749 283.629 151.181C306.641 142.429 314.802 120.042 326.826 100.929C334.253 89.7004 343.892 80.0949 355.156 72.6956C366.179 65.4317 376.834 63.3138 389.384 62.4736C383.791 55.976 377.667 49.9518 371.076 44.4626V44.4626Z" fill="url(#paint5_radial_306_270)"/>
<path opacity="0.5" d="M394.088 68.3199C365.021 66.692 339.253 94.3299 327.388 117.784C321.086 130.282 315.241 141.502 303.27 149.921C290.843 158.672 276.818 160.58 262.197 163.048C250.121 165.079 238.343 165.814 231.181 177.576C225.196 187.413 224.301 199.035 222.668 210.325C218.105 241.831 192.829 265.478 166.342 281.074C167.869 282.421 174.592 287.865 174.592 287.865C176.698 287.865 181.613 283.524 183.368 282.246C199.969 269.798 213.729 253.976 223.739 235.827C227.25 229.176 228.531 221.825 229.935 214.543C232.077 203.429 231.374 189.163 239.694 180.587C245.557 174.548 252.613 174.688 260.143 172.903C269.411 170.697 279.083 169.56 288.228 167.442C300.234 164.676 312.801 158.322 319.577 147.75C325.211 138.999 329.336 129.792 335.374 121.583C350.733 100.719 374.569 81.1673 402.303 80.2222C399.81 76.1264 397.072 72.1589 394.088 68.3199Z" fill="url(#paint6_radial_306_270)"/>
<path opacity="0.5" d="M423.419 130.737C401.548 134.745 385.312 156.992 373.499 173.988C360.141 193.241 344.923 212.688 325.58 226.393C305.798 240.396 281.54 246.574 260.161 257.654C239.695 268.261 216.929 285.467 207.503 307.276C213.3 309.911 219.292 312.1 225.424 313.822C227.18 313.087 231.269 301.395 232.568 299.365C237.892 291.058 244.769 283.849 252.824 278.133C272.132 264.428 296.442 261.837 317.646 252.735C329.003 247.835 339.903 243.091 349.241 234.794C358.105 226.97 365.337 217.466 372.059 207.787C383.539 191.211 403.022 163.013 426.947 167.529C427.232 155.169 426.048 142.819 423.419 130.737V130.737Z" fill="url(#paint7_radial_306_270)"/>
<path opacity="0.5" d="M389.524 197.425C383.89 203.936 379.712 211.428 374.639 218.429C368.993 225.743 362.721 232.554 355.893 238.785C344.15 250.005 328.616 255.081 313.029 259.474C281.803 268.226 243.802 282.229 232.287 315.66C234.017 316.165 235.775 316.568 237.553 316.868C238.904 314.89 241.063 309.499 242.345 307.399C244.395 303.796 246.743 300.371 249.366 297.159C255.65 289.598 265.339 283.437 273.94 278.886C295.196 267.596 319.577 265.618 341.412 256.131C362.212 247.135 372.691 228.441 386.014 211.463C392.017 203.831 397.879 196.462 405.743 190.459C409.512 187.507 413.641 185.043 418.03 183.125C418.942 182.74 425.612 181.182 426.086 180.587C426.086 180.587 426.613 174.583 426.701 173.148C410.903 173.655 399.161 186.328 389.524 197.425Z" fill="url(#paint8_radial_306_270)"/>
<path opacity="0.5" d="M422.892 189.111C406.515 195.465 391.157 212.023 381.415 226.043C376.149 233.499 371.603 241.463 364.529 247.257C356.683 253.663 348.135 257.759 339.13 262.292C321.876 270.887 302.27 272.182 284.875 280.601C267.866 288.845 253.14 299.855 246.786 318.583C249.752 319.038 252.754 319.389 255.737 319.686C257.345 319.891 258.962 320.008 260.582 320.036C263.742 316.535 266.971 308.921 270.394 305.351C277.224 298.567 285.584 293.513 294.775 290.613C312.959 284.434 332.215 284.102 350.118 276.61C359.532 272.972 367.895 267.067 374.464 259.422C380.572 252.123 386.312 244.141 393.298 237.63C397.111 234.105 401.344 231.06 405.901 228.563C412.097 225.15 414.308 226.078 416.889 219.217C420.704 209.113 423.463 198.642 425.121 187.973L422.892 189.111Z" fill="url(#paint9_radial_306_270)"/>
<path opacity="0.5" d="M412.237 97.8479C385.908 98.198 368.163 124.646 353.945 143.234C337.603 164.728 319.664 182.459 295.213 194.117C289.175 196.987 283.207 199.035 278.345 203.761C274.312 207.813 270.52 212.097 266.989 216.591C258.423 227.093 250.191 238.068 240.66 247.729C231.883 256.656 222.352 265.793 211.698 272.462C205.87 275.975 200.658 280.415 196.269 285.607C193.585 289.456 191.101 293.441 188.827 297.544C190.178 298.484 191.598 299.32 193.074 300.047C196.409 287.322 208.714 279.883 218.894 272.899C230.443 265.05 241.226 256.136 251.104 246.277C258.463 238.864 265.208 230.868 271.272 222.367C278.695 211.335 289.285 202.794 301.655 197.862C324.281 188.095 342.378 170.645 356.578 150.901C371.375 130.317 387.049 106.53 414.923 103.904C414.063 101.891 413.168 99.8958 412.237 97.8479Z" fill="url(#paint10_radial_306_270)"/>
</g>
<path d="M537.89 10.7691C519.197 -21.5337 384.121 21.2827 236.159 106.459C88.1967 191.634 -16.5738 286.714 2.16974 319.22C15.056 341.517 83.307 328.058 172.899 289.609L171.83 288.746C88.4513 322.776 25.0899 333.391 13.1714 312.871C-4.50254 282.397 96.1932 191.431 238.043 109.709C379.894 27.987 509.214 -13.4581 526.888 17.0671C538.807 37.6373 497.652 87.2597 426.09 142.469V143.84C504.783 85.482 550.623 33.117 537.89 10.7691Z" fill="url(#paint11_linear_306_270)"/>
<path d="M522.099 19.9117C505.138 -9.34365 378.619 31.9491 239.417 112.097C100.216 192.244 1.04786 280.874 18.0088 310.18C29.1632 329.531 88.1954 318.053 167.092 284.785L163.832 282.042C100.165 304.593 54.7319 308.758 46.3278 294.232C32.6267 270.614 119.316 200.777 248.127 126.623C376.938 52.4686 482.422 13.512 496.123 37.1297C504.578 51.7066 477.175 88.9362 424.816 132.667L425.376 136.222C493.627 84.6189 533.253 39.2122 522.099 19.9117Z" fill="url(#paint12_linear_306_270)"/>
<defs>
<radialGradient id="paint0_radial_306_270" cx="0" cy="0" r="1" gradientUnits="userSpaceOnUse" gradientTransform="translate(210 227.292) rotate(-45.278) scale(226.67 226.677)">
<stop stop-color="#540044"/>
<stop offset="0.4" stop-color="#530246"/>
<stop offset="0.54" stop-color="#50084D"/>
<stop offset="0.64" stop-color="#4B1358"/>
<stop offset="0.73" stop-color="#432369"/>
<stop offset="0.8" stop-color="#39387F"/>
<stop offset="0.86" stop-color="#2D519B"/>
<stop offset="0.92" stop-color="#1E6FBB"/>
<stop offset="0.97" stop-color="#0D91DF"/>
<stop offset="1" stop-color="#00ADFD"/>
</radialGradient>
<radialGradient id="paint1_radial_306_270" cx="0" cy="0" r="1" gradientUnits="userSpaceOnUse" gradientTransform="translate(150.825 66.1318) scale(81.269 81.0407)">
<stop stop-color="#690054"/>
<stop offset="0.4" stop-color="#680256"/>
<stop offset="0.55" stop-color="#64095C"/>
<stop offset="0.65" stop-color="#5D1468"/>
<stop offset="0.74" stop-color="#522579"/>
<stop offset="0.81" stop-color="#453B8E"/>
<stop offset="0.87" stop-color="#3457A9"/>
<stop offset="0.93" stop-color="#2177C8"/>
<stop offset="0.98" stop-color="#0B9BEC"/>
<stop offset="1" stop-color="#00ADFD"/>
</radialGradient>
<radialGradient id="paint2_radial_306_270" cx="0" cy="0" r="1" gradientUnits="userSpaceOnUse" gradientTransform="translate(157.723 85.0354) scale(118.568 118.235)">
<stop stop-color="#690054"/>
<stop offset="0.4" stop-color="#680256"/>
<stop offset="0.55" stop-color="#64095C"/>
<stop offset="0.65" stop-color="#5D1468"/>
<stop offset="0.74" stop-color="#522579"/>
<stop offset="0.81" stop-color="#453B8E"/>
<stop offset="0.87" stop-color="#3457A9"/>
<stop offset="0.93" stop-color="#2177C8"/>
<stop offset="0.98" stop-color="#0B9BEC"/>
<stop offset="1" stop-color="#00ADFD"/>
</radialGradient>
<radialGradient id="paint3_radial_306_270" cx="0" cy="0" r="1" gradientUnits="userSpaceOnUse" gradientTransform="translate(182.964 119.762) scale(162.433 161.976)">
<stop stop-color="#690054"/>
<stop offset="0.4" stop-color="#680256"/>
<stop offset="0.55" stop-color="#64095C"/>
<stop offset="0.65" stop-color="#5D1468"/>
<stop offset="0.74" stop-color="#522579"/>
<stop offset="0.81" stop-color="#453B8E"/>
<stop offset="0.87" stop-color="#3457A9"/>
<stop offset="0.93" stop-color="#2177C8"/>
<stop offset="0.98" stop-color="#0B9BEC"/>
<stop offset="1" stop-color="#00ADFD"/>
</radialGradient>
<radialGradient id="paint4_radial_306_270" cx="0" cy="0" r="1" gradientUnits="userSpaceOnUse" gradientTransform="translate(193.426 134.063) scale(173.859 173.371)">
<stop stop-color="#690054"/>
<stop offset="0.4" stop-color="#680256"/>
<stop offset="0.55" stop-color="#64095C"/>
<stop offset="0.65" stop-color="#5D1468"/>
<stop offset="0.74" stop-color="#522579"/>
<stop offset="0.81" stop-color="#453B8E"/>
<stop offset="0.87" stop-color="#3457A9"/>
<stop offset="0.93" stop-color="#2177C8"/>
<stop offset="0.98" stop-color="#0B9BEC"/>
<stop offset="1" stop-color="#00ADFD"/>
</radialGradient>
<radialGradient id="paint5_radial_306_270" cx="0" cy="0" r="1" gradientUnits="userSpaceOnUse" gradientTransform="translate(208.872 156.992) scale(184.391 183.873)">
<stop stop-color="#690054"/>
<stop offset="0.4" stop-color="#680256"/>
<stop offset="0.55" stop-color="#64095C"/>
<stop offset="0.65" stop-color="#5D1468"/>
<stop offset="0.74" stop-color="#522579"/>
<stop offset="0.81" stop-color="#453B8E"/>
<stop offset="0.87" stop-color="#3457A9"/>
<stop offset="0.93" stop-color="#2177C8"/>
<stop offset="0.98" stop-color="#0B9BEC"/>
<stop offset="1" stop-color="#00ADFD"/>
</radialGradient>
<radialGradient id="paint6_radial_306_270" cx="0" cy="0" r="1" gradientUnits="userSpaceOnUse" gradientTransform="translate(232.638 178.381) scale(175.492 174.999)">
<stop stop-color="#690054"/>
<stop offset="0.4" stop-color="#680256"/>
<stop offset="0.55" stop-color="#64095C"/>
<stop offset="0.65" stop-color="#5D1468"/>
<stop offset="0.74" stop-color="#522579"/>
<stop offset="0.81" stop-color="#453B8E"/>
<stop offset="0.87" stop-color="#3457A9"/>
<stop offset="0.93" stop-color="#2177C8"/>
<stop offset="0.98" stop-color="#0B9BEC"/>
<stop offset="1" stop-color="#00ADFD"/>
</radialGradient>
<radialGradient id="paint7_radial_306_270" cx="0" cy="0" r="1" gradientUnits="userSpaceOnUse" gradientTransform="translate(269.166 222.542) scale(158.343 157.898)">
<stop stop-color="#690054"/>
<stop offset="0.4" stop-color="#680256"/>
<stop offset="0.55" stop-color="#64095C"/>
<stop offset="0.65" stop-color="#5D1468"/>
<stop offset="0.74" stop-color="#522579"/>
<stop offset="0.81" stop-color="#453B8E"/>
<stop offset="0.87" stop-color="#3457A9"/>
<stop offset="0.93" stop-color="#2177C8"/>
<stop offset="0.98" stop-color="#0B9BEC"/>
<stop offset="1" stop-color="#00ADFD"/>
</radialGradient>
<radialGradient id="paint8_radial_306_270" cx="0" cy="0" r="1" gradientUnits="userSpaceOnUse" gradientTransform="translate(286.841 245.262) scale(136.472 136.089)">
<stop stop-color="#690054"/>
<stop offset="0.4" stop-color="#680256"/>
<stop offset="0.55" stop-color="#64095C"/>
<stop offset="0.65" stop-color="#5D1468"/>
<stop offset="0.74" stop-color="#522579"/>
<stop offset="0.81" stop-color="#453B8E"/>
<stop offset="0.87" stop-color="#3457A9"/>
<stop offset="0.93" stop-color="#2177C8"/>
<stop offset="0.98" stop-color="#0B9BEC"/>
<stop offset="1" stop-color="#00ADFD"/>
</radialGradient>
<radialGradient id="paint9_radial_306_270" cx="0" cy="0" r="1" gradientUnits="userSpaceOnUse" gradientTransform="translate(296.863 254.206) scale(125.221 124.869)">
<stop stop-color="#690054"/>
<stop offset="0.4" stop-color="#680256"/>
<stop offset="0.55" stop-color="#64095C"/>
<stop offset="0.65" stop-color="#5D1468"/>
<stop offset="0.74" stop-color="#522579"/>
<stop offset="0.81" stop-color="#453B8E"/>
<stop offset="0.87" stop-color="#3457A9"/>
<stop offset="0.93" stop-color="#2177C8"/>
<stop offset="0.98" stop-color="#0B9BEC"/>
<stop offset="1" stop-color="#00ADFD"/>
</radialGradient>
<radialGradient id="paint10_radial_306_270" cx="0" cy="0" r="1" gradientUnits="userSpaceOnUse" gradientTransform="translate(252.28 199.28) scale(166.171 165.705)">
<stop stop-color="#690054"/>
<stop offset="0.4" stop-color="#680256"/>
<stop offset="0.55" stop-color="#64095C"/>
<stop offset="0.65" stop-color="#5D1468"/>
<stop offset="0.74" stop-color="#522579"/>
<stop offset="0.81" stop-color="#453B8E"/>
<stop offset="0.87" stop-color="#3457A9"/>
<stop offset="0.93" stop-color="#2177C8"/>
<stop offset="0.98" stop-color="#0B9BEC"/>
<stop offset="1" stop-color="#00ADFD"/>
</radialGradient>
<linearGradient id="paint11_linear_306_270" x1="311.133" y1="222.464" x2="232.125" y2="111.378" gradientUnits="userSpaceOnUse">
<stop stop-color="#03AAFB"/>
<stop offset="0.04" stop-color="#2682E5"/>
<stop offset="0.08" stop-color="#455FD2"/>
<stop offset="0.12" stop-color="#5F42C1"/>
<stop offset="0.16" stop-color="#7429B3"/>
<stop offset="0.21" stop-color="#8517A9"/>
<stop offset="0.28" stop-color="#900AA1"/>
<stop offset="0.35" stop-color="#97029D"/>
<stop offset="0.51" stop-color="#99009C"/>
<stop offset="0.71" stop-color="#97029D"/>
<stop offset="0.78" stop-color="#9109A1"/>
<stop offset="0.83" stop-color="#8714A7"/>
<stop offset="0.87" stop-color="#7825B1"/>
<stop offset="0.91" stop-color="#643BBD"/>
<stop offset="0.94" stop-color="#4C57CD"/>
<stop offset="0.96" stop-color="#3077DF"/>
<stop offset="0.99" stop-color="#109BF3"/>
<stop offset="1" stop-color="#00ADFD"/>
</linearGradient>
<linearGradient id="paint12_linear_306_270" x1="311.132" y1="222.465" x2="232.124" y2="111.379" gradientUnits="userSpaceOnUse">
<stop stop-color="#03AAFB"/>
<stop offset="0.04" stop-color="#2682E5"/>
<stop offset="0.08" stop-color="#455FD2"/>
<stop offset="0.12" stop-color="#5F42C1"/>
<stop offset="0.16" stop-color="#7429B3"/>
<stop offset="0.21" stop-color="#8517A9"/>
<stop offset="0.28" stop-color="#900AA1"/>
<stop offset="0.35" stop-color="#97029D"/>
<stop offset="0.51" stop-color="#99009C"/>
<stop offset="0.71" stop-color="#97029D"/>
<stop offset="0.78" stop-color="#9109A1"/>
<stop offset="0.83" stop-color="#8714A7"/>
<stop offset="0.87" stop-color="#7825B1"/>
<stop offset="0.91" stop-color="#643BBD"/>
<stop offset="0.94" stop-color="#4C57CD"/>
<stop offset="0.96" stop-color="#3077DF"/>
<stop offset="0.99" stop-color="#109BF3"/>
<stop offset="1" stop-color="#00ADFD"/>
</linearGradient>
</defs>
</svg>
