<svg width="1089" height="439" viewBox="0 0 1089 439" fill="none" xmlns="http://www.w3.org/2000/svg">
<circle cx="322.5" cy="173.5" r="2.5" fill="#FFC648"/>
<circle cx="448.5" cy="52.5" r="2.5" fill="#FFC648"/>
<circle cx="493.5" cy="11.5" r="2.5" fill="#FFC648"/>
<circle cx="661.5" cy="60.5" r="2.5" fill="#FFC648"/>
<circle cx="874.5" cy="38.5" r="2.5" fill="#FFC648"/>
<circle cx="549" cy="38" r="5" fill="#FFC648"/>
<circle cx="882" cy="82" r="5" fill="#FFC648"/>
<circle cx="173" cy="375" r="3" fill="#FFC648"/>
<circle cx="237" cy="350" r="5" fill="#FFC648"/>
<circle cx="69" cy="70" r="5" fill="#FFC648"/>
<circle cx="151.5" cy="191.5" r="3.5" fill="#FFC648"/>
<circle cx="201.5" cy="26.5" r="2.5" fill="#FFC648"/>
<circle cx="169.5" cy="163.5" r="2.5" fill="#FFC648"/>
<circle cx="1001" cy="154" r="3" fill="#FFC648"/>
<circle cx="873" cy="136" r="2" fill="#FFC648"/>
<circle cx="1059" cy="53" r="3" fill="#FFC648"/>
<path d="M990.999 213L992.856 218.144L998 220.001L992.856 221.856L990.999 227L989.144 221.856L984 220.001L989.144 218.144L990.999 213Z" fill="#FFC648"/>
<path d="M1077 345L1078.86 350.144L1084 352.001L1078.86 353.856L1077 359L1075.14 353.856L1070 352.001L1075.14 350.144L1077 345Z" fill="#FFC648"/>
<circle cx="841" cy="348" r="1" fill="#FFC648"/>
<circle cx="873" cy="359" r="2" fill="#FFC648"/>
<circle cx="1074" cy="298" r="2" fill="#FFC648"/>
<circle cx="1087" cy="11" r="2" fill="#FFC648"/>
<circle cx="789" cy="437" r="2" fill="#FFC648"/>
<circle cx="125" cy="1" r="1" fill="#FFC648"/>
<path d="M148.498 311L151.018 318.349L158 321.002L151.018 323.651L148.498 331L145.982 323.651L139 321.002L145.982 318.349L148.498 311Z" fill="#FFC648"/>
<circle cx="48" cy="307" r="1" fill="#FFC648"/>
<circle cx="80" cy="318" r="2" fill="#FFC648"/>
<circle cx="2" cy="396" r="2" fill="#FFC648"/>
</svg>
