<svg width="239" height="57" viewBox="0 0 239 57" fill="none" xmlns="http://www.w3.org/2000/svg">
<path d="M10.9499 19.0029L17.9772 14.9411L14.0547 8.13561H50.9453L32.506 40.1555L28.5834 33.3382L21.5561 37.412L32.506 56.4151L65 0H0L10.9499 19.0029Z" fill="white"/>
<path d="M111.56 37.392V51H113.456V34.2H111.536L105.416 43.368L99.296 34.2H97.376V51H99.224V37.416L105.344 46.392H105.44L111.56 37.392ZM119.004 45.48H128.844C128.86 45.368 128.868 45.264 128.868 45.168C128.868 45.072 128.868 44.984 128.868 44.904C128.868 43.992 128.74 43.136 128.484 42.336C128.228 41.536 127.852 40.84 127.356 40.248C126.86 39.656 126.252 39.192 125.532 38.856C124.812 38.504 123.996 38.328 123.084 38.328C122.22 38.328 121.42 38.496 120.684 38.832C119.964 39.168 119.34 39.632 118.812 40.224C118.284 40.8 117.868 41.488 117.564 42.288C117.276 43.072 117.132 43.912 117.132 44.808C117.132 45.768 117.292 46.648 117.612 47.448C117.948 48.248 118.396 48.936 118.956 49.512C119.516 50.072 120.172 50.512 120.924 50.832C121.676 51.136 122.476 51.288 123.324 51.288C124.508 51.288 125.5 51.08 126.3 50.664C127.1 50.232 127.812 49.664 128.436 48.96L127.284 47.928C126.772 48.456 126.204 48.88 125.58 49.2C124.972 49.52 124.236 49.68 123.372 49.68C122.828 49.68 122.308 49.592 121.812 49.416C121.316 49.224 120.868 48.952 120.468 48.6C120.068 48.232 119.74 47.792 119.484 47.28C119.228 46.752 119.068 46.152 119.004 45.48ZM119.004 44.112C119.068 43.504 119.212 42.944 119.436 42.432C119.66 41.92 119.948 41.48 120.3 41.112C120.652 40.728 121.06 40.432 121.524 40.224C121.988 40 122.492 39.888 123.036 39.888C123.66 39.888 124.204 40.008 124.668 40.248C125.148 40.472 125.548 40.776 125.868 41.16C126.204 41.544 126.46 41.992 126.636 42.504C126.828 43.016 126.948 43.552 126.996 44.112H119.004ZM134.599 40.224H138.535V38.592H134.599V34.848H132.751V38.592H131.023V40.224H132.751V47.712C132.751 48.336 132.839 48.872 133.015 49.32C133.191 49.768 133.431 50.136 133.735 50.424C134.055 50.696 134.431 50.896 134.863 51.024C135.295 51.152 135.759 51.216 136.255 51.216C136.703 51.216 137.103 51.168 137.455 51.072C137.823 50.992 138.167 50.864 138.487 50.688V49.104C138.167 49.264 137.863 49.376 137.575 49.44C137.303 49.504 137.007 49.536 136.687 49.536C136.063 49.536 135.559 49.384 135.175 49.08C134.791 48.776 134.599 48.24 134.599 47.472V40.224ZM146.294 40.056C147.462 40.056 148.366 40.344 149.006 40.92C149.662 41.48 149.99 42.32 149.99 43.44V43.872C149.43 43.712 148.854 43.584 148.262 43.488C147.67 43.392 146.974 43.344 146.174 43.344C145.39 43.344 144.67 43.432 144.014 43.608C143.374 43.784 142.814 44.04 142.334 44.376C141.87 44.712 141.51 45.136 141.254 45.648C140.998 46.144 140.87 46.72 140.87 47.376C140.87 48.032 140.998 48.6 141.254 49.08C141.526 49.56 141.878 49.968 142.31 50.304C142.758 50.624 143.254 50.864 143.798 51.024C144.358 51.184 144.926 51.264 145.502 51.264C146.606 51.264 147.518 51.048 148.238 50.616C148.974 50.184 149.558 49.688 149.99 49.128V51H151.766V43.416C151.766 41.768 151.31 40.528 150.398 39.696C149.486 38.848 148.182 38.424 146.486 38.424C145.574 38.424 144.766 38.52 144.062 38.712C143.358 38.888 142.662 39.136 141.974 39.456L142.526 40.968C143.102 40.696 143.686 40.48 144.278 40.32C144.886 40.144 145.558 40.056 146.294 40.056ZM146.366 44.712C147.134 44.712 147.814 44.768 148.406 44.88C149.014 44.992 149.55 45.112 150.014 45.24V46.44C150.014 46.936 149.902 47.392 149.678 47.808C149.47 48.208 149.174 48.56 148.79 48.864C148.422 49.152 147.982 49.384 147.47 49.56C146.974 49.72 146.438 49.8 145.862 49.8C145.446 49.8 145.046 49.744 144.662 49.632C144.294 49.52 143.966 49.36 143.678 49.152C143.39 48.928 143.158 48.664 142.982 48.36C142.822 48.056 142.742 47.704 142.742 47.304C142.742 46.504 143.054 45.872 143.678 45.408C144.302 44.944 145.198 44.712 146.366 44.712ZM168.593 39.552C168.593 38.72 168.441 37.976 168.137 37.32C167.849 36.648 167.425 36.088 166.865 35.64C166.321 35.176 165.657 34.824 164.873 34.584C164.105 34.328 163.249 34.2 162.305 34.2H156.017V51H157.913V45.072H161.993C162.889 45.072 163.737 44.96 164.537 44.736C165.337 44.496 166.033 44.144 166.625 43.68C167.233 43.216 167.713 42.64 168.065 41.952C168.417 41.264 168.593 40.464 168.593 39.552ZM166.673 39.624C166.673 40.184 166.561 40.696 166.337 41.16C166.129 41.608 165.817 42 165.401 42.336C165.001 42.656 164.513 42.904 163.937 43.08C163.377 43.256 162.753 43.344 162.065 43.344H157.913V35.952H162.161C163.521 35.952 164.609 36.264 165.425 36.888C166.257 37.496 166.673 38.408 166.673 39.624ZM173.584 46.056C173.584 45.128 173.712 44.312 173.968 43.608C174.224 42.888 174.576 42.288 175.024 41.808C175.472 41.328 175.992 40.968 176.584 40.728C177.192 40.488 177.832 40.368 178.504 40.368H178.648V38.376C178.056 38.36 177.504 38.432 176.992 38.592C176.48 38.752 176.008 38.992 175.576 39.312C175.144 39.616 174.76 39.984 174.424 40.416C174.088 40.848 173.808 41.32 173.584 41.832V38.592H171.736V51H173.584V46.056ZM193.091 44.784C193.091 43.904 192.931 43.072 192.611 42.288C192.291 41.504 191.843 40.824 191.267 40.248C190.691 39.656 190.003 39.192 189.203 38.856C188.419 38.504 187.563 38.328 186.635 38.328C185.691 38.328 184.819 38.504 184.019 38.856C183.235 39.192 182.555 39.656 181.979 40.248C181.403 40.84 180.955 41.536 180.635 42.336C180.315 43.12 180.155 43.952 180.155 44.832C180.155 45.712 180.315 46.544 180.635 47.328C180.955 48.112 181.403 48.8 181.979 49.392C182.555 49.968 183.235 50.432 184.019 50.784C184.803 51.12 185.659 51.288 186.587 51.288C187.515 51.288 188.379 51.12 189.179 50.784C189.979 50.432 190.667 49.96 191.243 49.368C191.819 48.776 192.267 48.088 192.587 47.304C192.923 46.504 193.091 45.664 193.091 44.784ZM191.195 44.832C191.195 45.504 191.083 46.136 190.859 46.728C190.635 47.304 190.323 47.808 189.923 48.24C189.523 48.672 189.043 49.016 188.483 49.272C187.923 49.512 187.307 49.632 186.635 49.632C185.979 49.632 185.371 49.504 184.811 49.248C184.251 48.992 183.763 48.648 183.347 48.216C182.947 47.784 182.627 47.272 182.387 46.68C182.163 46.088 182.051 45.456 182.051 44.784C182.051 44.112 182.163 43.488 182.387 42.912C182.611 42.32 182.915 41.808 183.299 41.376C183.699 40.928 184.179 40.584 184.739 40.344C185.299 40.088 185.915 39.96 186.587 39.96C187.243 39.96 187.851 40.088 188.411 40.344C188.971 40.6 189.459 40.952 189.875 41.4C190.291 41.832 190.611 42.344 190.835 42.936C191.075 43.528 191.195 44.16 191.195 44.832ZM198.599 35.88V33.84H196.487V35.88H198.599ZM196.607 38.592V51.696C196.607 52.272 196.471 52.688 196.199 52.944C195.943 53.216 195.607 53.352 195.191 53.352C195.063 53.352 194.911 53.344 194.735 53.328C194.575 53.328 194.423 53.312 194.279 53.28V54.792C194.487 54.84 194.671 54.872 194.831 54.888C195.007 54.904 195.207 54.912 195.431 54.912C196.375 54.912 197.111 54.656 197.639 54.144C198.183 53.632 198.455 52.824 198.455 51.72V38.592H196.607ZM203.848 45.48H213.688C213.704 45.368 213.712 45.264 213.712 45.168C213.712 45.072 213.712 44.984 213.712 44.904C213.712 43.992 213.584 43.136 213.328 42.336C213.072 41.536 212.696 40.84 212.2 40.248C211.704 39.656 211.096 39.192 210.376 38.856C209.656 38.504 208.84 38.328 207.928 38.328C207.064 38.328 206.264 38.496 205.528 38.832C204.808 39.168 204.184 39.632 203.656 40.224C203.128 40.8 202.712 41.488 202.408 42.288C202.12 43.072 201.976 43.912 201.976 44.808C201.976 45.768 202.136 46.648 202.456 47.448C202.792 48.248 203.24 48.936 203.8 49.512C204.36 50.072 205.016 50.512 205.768 50.832C206.52 51.136 207.32 51.288 208.168 51.288C209.352 51.288 210.344 51.08 211.144 50.664C211.944 50.232 212.656 49.664 213.28 48.96L212.128 47.928C211.616 48.456 211.048 48.88 210.424 49.2C209.816 49.52 209.08 49.68 208.216 49.68C207.672 49.68 207.152 49.592 206.656 49.416C206.16 49.224 205.712 48.952 205.312 48.6C204.912 48.232 204.584 47.792 204.328 47.28C204.072 46.752 203.912 46.152 203.848 45.48ZM203.848 44.112C203.912 43.504 204.056 42.944 204.28 42.432C204.504 41.92 204.792 41.48 205.144 41.112C205.496 40.728 205.904 40.432 206.368 40.224C206.832 40 207.336 39.888 207.88 39.888C208.504 39.888 209.048 40.008 209.512 40.248C209.992 40.472 210.392 40.776 210.712 41.16C211.048 41.544 211.304 41.992 211.48 42.504C211.672 43.016 211.792 43.552 211.84 44.112H203.848ZM227.603 48.888L226.427 47.784C225.931 48.312 225.371 48.752 224.747 49.104C224.139 49.456 223.435 49.632 222.635 49.632C221.979 49.632 221.371 49.512 220.811 49.272C220.267 49.016 219.787 48.672 219.371 48.24C218.971 47.792 218.651 47.272 218.411 46.68C218.187 46.088 218.075 45.456 218.075 44.784C218.075 44.112 218.187 43.488 218.411 42.912C218.635 42.32 218.947 41.808 219.347 41.376C219.747 40.928 220.219 40.584 220.763 40.344C221.307 40.088 221.891 39.96 222.515 39.96C223.363 39.96 224.075 40.144 224.651 40.512C225.243 40.88 225.787 41.32 226.283 41.832L227.507 40.536C227.219 40.232 226.907 39.944 226.571 39.672C226.235 39.4 225.867 39.168 225.467 38.976C225.067 38.768 224.627 38.608 224.147 38.496C223.667 38.384 223.131 38.328 222.539 38.328C221.627 38.328 220.779 38.504 219.995 38.856C219.227 39.192 218.555 39.656 217.979 40.248C217.419 40.84 216.979 41.536 216.659 42.336C216.339 43.12 216.179 43.952 216.179 44.832C216.179 45.712 216.339 46.544 216.659 47.328C216.979 48.112 217.419 48.8 217.979 49.392C218.555 49.968 219.227 50.432 219.995 50.784C220.779 51.12 221.627 51.288 222.539 51.288C223.707 51.288 224.683 51.064 225.467 50.616C226.267 50.168 226.979 49.592 227.603 48.888ZM233.154 40.224H237.09V38.592H233.154V34.848H231.306V38.592H229.578V40.224H231.306V47.712C231.306 48.336 231.394 48.872 231.57 49.32C231.746 49.768 231.986 50.136 232.29 50.424C232.61 50.696 232.986 50.896 233.418 51.024C233.85 51.152 234.314 51.216 234.81 51.216C235.258 51.216 235.658 51.168 236.01 51.072C236.378 50.992 236.722 50.864 237.042 50.688V49.104C236.722 49.264 236.418 49.376 236.13 49.44C235.858 49.504 235.562 49.536 235.242 49.536C234.618 49.536 234.114 49.384 233.73 49.08C233.346 48.776 233.154 48.24 233.154 47.472V40.224Z" fill="white"/>
</svg>
