<svg width="244" height="316" viewBox="0 0 244 316" fill="none" xmlns="http://www.w3.org/2000/svg">
<path d="M185 270.642L159.095 97H75.9195L50 270.642C50 270.642 68.0052 316 117.507 316C166.995 316 185 270.642 185 270.642Z" fill="url(#paint0_radial_306_360)" fill-opacity="0.5"/>
<path d="M219.469 81.5089L122 73.8981L24.5358 81.5089C24.5358 81.5089 41.5053 104.032 122 104.032C202.512 104.032 219.469 81.5089 219.469 81.5089Z" fill="#EBEDF3"/>
<path d="M127.6 103.994C203.293 102.976 219.469 81.509 219.469 81.509L204.197 80.3169L193.094 83.5751C193.094 83.5751 171.03 99.4119 127.6 103.994Z" fill="#B9BECD"/>
<path d="M243.982 68.9813C243.914 68.2751 243.706 67.5896 243.37 66.9652C243.033 66.3407 242.575 65.79 242.022 65.3456C227.377 54.7396 201.32 46.8446 182.022 42.1016C168.299 38.7353 154.275 36.7457 140.158 36.1622L122 35.4028L103.847 36.1622C89.7299 36.7457 75.7059 38.7353 61.9834 42.1016C42.6805 46.8446 16.6281 54.7184 1.98335 65.3456C1.31847 65.8691 0.791382 66.547 0.447838 67.3205C0.104294 68.0939 -0.0453432 68.9395 0.0119217 69.7838C0.0691866 70.6282 0.331626 71.4458 0.776452 72.1657C1.22128 72.8857 1.83507 73.4862 2.56455 73.9152C8.82631 77.8903 34.1703 88.9842 122 88.9842C209.818 88.9842 235.179 77.8903 241.436 73.9152C242.273 73.4058 242.953 72.6759 243.402 71.8056C243.851 70.9353 244.051 69.9582 243.982 68.9813Z" fill="#EBEDF3"/>
<path d="M217.56 62.0789C222.698 73.1091 133.073 84.4956 103.465 84.4956C96.5249 84.4956 95.2013 86.1417 97.314 88.6702C104.95 88.878 113.151 88.9925 122 88.9925C209.818 88.9925 235.179 77.8988 241.436 73.9236C242.165 73.4943 242.779 72.8938 243.223 72.1741C243.668 71.4544 243.93 70.6371 243.988 69.7931C244.046 68.9491 243.897 68.1038 243.554 67.3303C243.212 66.5568 242.686 65.8785 242.022 65.354C227.377 54.748 201.32 46.853 182.022 42.11C182.022 42.1015 212.427 51.0487 217.56 62.0789Z" fill="#B9BECD"/>
<path d="M172.574 41.5797L122 46.3524L71.4269 41.5797C71.4269 41.5797 67.5197 42.9457 65.9542 44.0784C65.9542 44.0784 84.8668 54.3026 122 54.3026C159.134 54.3026 178.051 44.0784 178.051 44.0784C176.485 42.9457 172.574 41.5797 172.574 41.5797Z" fill="#B9BECD"/>
<path d="M122 0C74.4856 0 69.6918 43.616 69.6918 43.616C69.6918 43.616 83.208 51.7444 122 51.7444C160.793 51.7444 174.313 43.616 174.313 43.616C174.313 43.616 169.519 0 122 0Z" fill="#34C8CB"/>
<path d="M174.313 43.6159C174.313 43.6159 170.071 5.12903 130.192 0.462402C130.332 0.56422 149.092 13.6859 150.433 31.7033C151.039 39.8445 150.369 45.9069 149.453 50.1195C167.44 47.7481 174.313 43.6159 174.313 43.6159Z" fill="#2FB4B7"/>
<path d="M101.402 9.20132C98.6009 10.0302 96.0435 11.3818 93.9343 13.1482C90.3893 16.0563 84.003 21.9432 83.0134 27.1497C81.6354 34.459 101.245 30.3346 109.009 15.9462C112.92 8.66806 106.767 7.67608 101.402 9.20132Z" fill="#02EEED"/>
<path d="M122 75.6163C126.834 75.6163 130.752 73.2725 130.752 70.3812C130.752 67.4899 126.834 65.1461 122 65.1461C117.167 65.1461 113.248 67.4899 113.248 70.3812C113.248 73.2725 117.167 75.6163 122 75.6163Z" fill="#EFB207"/>
<path d="M122 70.4321C124.235 70.4321 126.048 69.3495 126.048 68.014C126.048 66.6785 124.235 65.5958 122 65.5958C119.765 65.5958 117.953 66.6785 117.953 68.014C117.953 69.3495 119.765 70.4321 122 70.4321Z" fill="#FFC648"/>
<path d="M127.872 66.5079C128.17 66.7769 128.411 67.1035 128.579 67.4681C128.748 67.8327 128.84 68.2277 128.852 68.6291C128.852 70.8903 125.785 72.723 122 72.723C118.216 72.723 115.153 70.8903 115.153 68.6291C115.164 68.228 115.256 67.8332 115.424 67.4686C115.592 67.1041 115.831 66.7772 116.129 66.5079C114.364 67.4667 113.248 68.8412 113.248 70.3812C113.248 73.2703 117.168 75.6164 122 75.6164C126.832 75.6164 130.752 73.2703 130.752 70.3812C130.757 68.8412 129.641 67.4667 127.872 66.5079Z" fill="#DD9E00"/>
<path d="M84.8644 69.5516C85.0117 66.6641 81.2177 64.1237 76.3904 63.8775C71.563 63.6313 67.5303 65.7724 67.383 68.66C67.2357 71.5475 71.0297 74.0879 75.857 74.3341C80.6844 74.5804 84.7171 72.4392 84.8644 69.5516Z" fill="#EFB207"/>
<path d="M47.6671 64.9417C48.0858 62.0809 44.5482 59.1943 39.7655 58.4942C34.9828 57.7942 30.7663 59.5458 30.3475 62.4066C29.9288 65.2674 33.4665 68.154 38.2491 68.8541C43.0318 69.5541 47.2484 67.8024 47.6671 64.9417Z" fill="#EFB207"/>
<path d="M80.2721 66.9279C80.2043 68.2643 78.3376 69.2528 76.1061 69.1382C73.8747 69.0237 72.1225 67.8655 72.1904 66.5164C72.2583 65.1673 74.1207 64.1916 76.3522 64.3061C78.5837 64.4207 80.3358 65.5958 80.2721 66.9279Z" fill="#FFC648"/>
<path d="M43.3427 61.8969C43.1492 63.2209 41.1978 64.029 38.987 63.7047C36.7762 63.3804 35.141 62.0623 35.3357 60.7256C35.5304 59.3889 37.4765 58.593 39.6873 58.9173C41.8981 59.2416 43.5316 60.5767 43.3427 61.8969Z" fill="#FFC648"/>
<path d="M82.1685 65.5195C82.4461 65.8025 82.6641 66.1383 82.8099 66.507C82.9556 66.8757 83.026 67.2698 83.017 67.6661C82.9025 69.9231 79.7461 71.5988 75.9704 71.4079C72.1947 71.217 69.225 69.2273 69.3396 66.9661C69.3739 66.5702 69.4873 66.1853 69.6732 65.834C69.859 65.4828 70.1134 65.1724 70.4214 64.9213C68.6099 65.7697 67.4263 67.1061 67.3457 68.6418C67.2014 71.5267 70.9941 74.0679 75.8304 74.3139C80.6667 74.56 84.6885 72.4176 84.837 69.5327C84.9388 68.0182 83.8825 66.5631 82.1685 65.5195Z" fill="#DD9E00"/>
<path d="M45.3634 60.6734C45.6131 60.9813 45.7985 61.3362 45.9089 61.717C46.0192 62.0977 46.0522 62.4967 46.0059 62.8905C45.6791 65.1266 42.3789 66.4974 38.638 65.9515C34.8971 65.4057 32.1281 63.145 32.4552 60.9047C32.5267 60.5138 32.6759 60.1412 32.894 59.8091C33.1121 59.4769 33.3947 59.1919 33.7249 58.9709C31.8415 59.6449 30.5373 60.8637 30.3123 62.3851C29.8968 65.2435 33.4332 68.1307 38.2248 68.8314C43.0164 69.5322 47.2222 67.7783 47.6419 64.9203C47.8859 63.4221 46.9714 61.8739 45.3634 60.6734Z" fill="#DD9E00"/>
<path d="M159.181 69.5327C159.325 72.4176 163.359 74.56 168.187 74.3139C173.015 74.0679 176.808 71.5267 176.672 68.6418C176.536 65.757 172.493 63.6146 167.665 63.8607C162.838 64.1067 159.011 66.6437 159.181 69.5327Z" fill="#EFB207"/>
<path d="M163.737 66.9279C163.805 68.2643 165.671 69.2528 167.903 69.1382C170.134 69.0237 171.887 67.8655 171.819 66.5164C171.751 65.1673 169.888 64.1916 167.657 64.3061C165.425 64.4207 163.669 65.5958 163.737 66.9279Z" fill="#FFC648"/>
<path d="M161.836 65.5195C161.56 65.8034 161.343 66.1393 161.197 66.5078C161.051 66.8762 160.98 67.27 160.988 67.6661C161.107 69.9231 164.259 71.5988 168.039 71.4079C171.819 71.217 174.784 69.2273 174.67 66.9661C174.635 66.5702 174.522 66.1853 174.336 65.834C174.15 65.4828 173.896 65.1724 173.588 64.9213C175.399 65.7697 176.583 67.1061 176.659 68.6418C176.808 71.5267 173.015 74.0679 168.174 74.3139C163.334 74.56 159.312 72.4176 159.168 69.5327C159.079 68.0182 160.122 66.5631 161.836 65.5195Z" fill="#DD9E00"/>
<path d="M209.326 68.6203C214.146 68.2512 217.874 65.6149 217.653 62.7321C217.432 59.8493 213.346 57.8116 208.527 58.1807C203.707 58.5499 199.979 61.1861 200.2 64.0689C200.421 66.9517 204.507 68.9895 209.326 68.6203Z" fill="#EFB207"/>
<path d="M204.697 61.362C204.803 62.6983 206.691 63.6401 208.94 63.4831C211.188 63.3262 212.889 62.0959 212.787 60.7638C212.686 59.4317 210.798 58.4898 208.571 58.6426C206.343 58.7953 204.595 60.0298 204.697 61.362Z" fill="#FFC648"/>
<path d="M202.763 60.0044C202.488 60.2927 202.275 60.6332 202.135 61.0056C201.995 61.378 201.932 61.7747 201.948 62.1722C202.122 64.4249 205.342 66.0201 209.092 65.7316C212.842 65.4431 215.782 63.3813 215.608 61.1244C215.563 60.7291 215.438 60.347 215.243 60.0003C215.048 59.6536 214.786 59.3492 214.472 59.105C216.304 59.9238 217.522 61.2262 217.641 62.7492C217.861 65.6298 214.132 68.2643 209.313 68.6334C204.493 69.0024 200.404 66.9661 200.187 64.0855C200.069 62.5498 201.078 61.0904 202.763 60.0044Z" fill="#DD9E00"/>
<path d="M31.9303 80.932L24.5358 81.509C24.5358 81.509 37.6235 98.9028 95.3836 103.111C55.8064 99.6112 35.7824 84.2071 31.9303 80.932Z" fill="#B5B5B5"/>
<path d="M107.704 103.781L110.249 103.862C109.435 103.828 108.595 103.803 107.704 103.781Z" fill="#B5B5B5"/>
<path d="M59.9511 42.6063C40.8858 47.3917 16.1188 55.0874 1.98315 65.3455C1.42997 65.79 0.971241 66.3407 0.633923 66.965C0.296606 67.5894 0.087507 68.2749 0.0189278 68.9813C-0.0361798 69.6614 0.0441785 70.3456 0.255361 70.9945C0.466544 71.6433 0.804339 72.2438 1.2492 72.7612C22.1472 52.6778 59.9511 42.6063 59.9511 42.6063Z" fill="#B5B5B5"/>
<path d="M243.982 68.9812C243.914 68.275 243.706 67.5895 243.37 66.965C243.033 66.3406 242.575 65.7899 242.022 65.3455C242.022 65.3455 222.053 82.4423 122 82.4423C21.948 82.4423 1.98335 65.3624 1.98335 65.3624C1.31847 65.886 0.791382 66.5639 0.447838 67.3373C0.104294 68.1108 -0.0453432 68.9563 0.0119217 69.8007C0.0691866 70.645 0.331626 71.4626 0.776452 72.1826C1.22128 72.9025 1.83507 73.503 2.56455 73.932C8.82631 77.9072 34.1703 89.001 122 89.001C209.818 89.001 235.179 77.9072 241.436 73.932C242.275 73.4213 242.957 72.6888 243.406 71.8151C243.855 70.9415 244.055 69.9608 243.982 68.9812Z" fill="#003557"/>
<defs>
<radialGradient id="paint0_radial_306_360" cx="0" cy="0" r="1" gradientUnits="userSpaceOnUse" gradientTransform="translate(118 97) rotate(90) scale(202.575 124.875)">
<stop offset="0.078125" stop-color="#EFB207"/>
<stop offset="1" stop-color="#EFB207" stop-opacity="0"/>
</radialGradient>
</defs>
</svg>
