<svg width="288" height="289" viewBox="0 0 288 289" fill="none" xmlns="http://www.w3.org/2000/svg">
<mask id="mask0_306_333" style="mask-type:alpha" maskUnits="userSpaceOnUse" x="0" y="0" width="288" height="289">
<path d="M287.432 136.997C288.917 165.42 281.962 193.645 267.45 218.103C252.937 242.561 231.518 262.151 205.901 274.397C180.285 286.642 151.623 290.992 123.541 286.896C95.4597 282.799 69.2203 270.441 48.143 251.384C27.0657 232.328 12.0978 207.429 5.13231 179.839C-1.83321 152.248 -0.483006 123.205 9.01215 96.384C18.5073 69.5632 35.7206 46.1696 58.4745 29.163C81.2284 12.1563 108.5 2.30082 136.84 0.843262C174.806 -1.10939 211.992 12.1337 240.229 37.6632C268.466 63.1927 285.443 98.9205 287.432 136.997Z" fill="url(#paint0_radial_306_333)"/>
</mask>
<g mask="url(#mask0_306_333)">
<path d="M288.697 136.997C290.181 165.42 283.227 193.645 268.714 218.103C254.202 242.561 232.783 262.151 207.166 274.397C181.55 286.642 152.888 290.992 124.806 286.896C96.7244 282.799 70.4851 270.441 49.4078 251.384C28.3304 232.328 13.3626 207.429 6.39708 179.839C-0.568439 152.248 0.781765 123.205 10.2769 96.384C19.7721 69.5632 36.9853 46.1696 59.7393 29.163C82.4932 12.1563 109.765 2.30082 138.105 0.843262C176.071 -1.10939 213.257 12.1337 241.494 37.6632C269.73 63.1927 286.708 98.9205 288.697 136.997Z" fill="url(#paint1_radial_306_333)"/>
<path d="M288.697 136.997C290.181 165.42 283.227 193.645 268.714 218.103C254.202 242.561 232.783 262.151 207.166 274.397C181.55 286.642 152.888 290.992 124.806 286.896C96.7244 282.799 70.4851 270.441 49.4078 251.384C28.3304 232.328 13.3626 207.429 6.39708 179.839C-0.568439 152.248 0.781765 123.205 10.2769 96.384C19.7721 69.5632 36.9853 46.1696 59.7393 29.163C82.4932 12.1563 109.765 2.30082 138.105 0.843262C176.071 -1.10939 213.257 12.1337 241.494 37.6632C269.73 63.1927 286.708 98.9205 288.697 136.997Z" fill="url(#paint2_radial_306_333)" fill-opacity="0.5"/>
<g style="mix-blend-mode:overlay">
<g style="mix-blend-mode:overlay">
<path d="M225.704 95.6073C224.588 91.9952 224.816 88.0993 226.347 84.6436C227.878 81.1879 230.608 78.4073 234.029 76.8179C232.163 75.8948 230.066 75.5487 228.004 75.8235C225.941 76.0982 224.007 76.9814 222.446 78.361C220.117 80.4278 218.391 83.0894 217.45 86.0625C216.51 89.0355 216.39 92.2087 217.106 95.2441C217.883 98.2591 219.251 101.089 221.131 103.567C223.012 106.045 225.367 108.122 228.057 109.676C230.714 111.472 233.927 112.245 237.107 111.855C237.765 111.726 238.404 111.513 239.007 111.22L236.563 110.04C231.203 106.836 227.306 101.656 225.704 95.6073Z" fill="#FF5859"/>
</g>
<g style="mix-blend-mode:overlay">
<path d="M246.881 98.0576C246.746 93.0581 245.105 88.2168 242.175 84.1699C240.207 80.9969 237.382 78.4478 234.03 76.8176C230.608 78.407 227.879 81.1876 226.347 84.6433C224.816 88.099 224.588 91.9949 225.704 95.607C227.328 101.671 231.26 106.853 236.654 110.039L239.098 111.219L240.275 110.675C242.346 109.3 244.037 107.422 245.192 105.217C246.347 103.011 246.928 100.548 246.881 98.0576Z" fill="#FFA87F"/>
</g>
</g>
<path opacity="0.59" d="M218.197 204.166C213.884 206.467 210.406 210.076 208.261 214.477C206.115 218.879 205.412 223.848 206.251 228.674C207.362 233.439 210.092 237.667 213.973 240.632C217.855 243.597 222.644 245.113 227.519 244.922C232.145 244.054 236.527 242.182 240.357 239.439C244.187 236.695 247.373 233.145 249.692 229.037C254.054 223.381 256.524 216.488 256.75 209.34C256.75 201.806 251.049 193.183 242.904 194.999C239.013 195.906 235.212 198.629 231.32 199.809C226.824 200.863 222.432 202.322 218.197 204.166Z" fill="#FFA87F"/>
<g style="mix-blend-mode:overlay" opacity="0.4">
<path d="M55.3862 194.273C95.1157 203.35 136.022 190.098 175.299 179.205C214.576 168.313 257.926 160.053 294.759 177.662C298.832 179.568 303.085 185.196 299.375 187.738C221.364 159.508 135.298 216.784 53.5766 202.17C43.4406 200.354 -20.543 179.478 -11.0405 166.407C-5.339 158.056 43.8927 191.641 55.3862 194.273Z" fill="#FF1F70"/>
</g>
<g style="mix-blend-mode:overlay" opacity="0.6">
<path d="M104.433 232.941C118.913 232.124 133.212 228.947 147.783 228.221C178.643 226.587 208.779 236.027 239.006 242.472C254.482 245.83 272.672 247.736 284.256 236.844C292.182 227.153 296.274 214.875 295.75 202.352C296.182 199.297 295.871 196.183 294.845 193.275C292.992 190.228 290.285 187.797 287.062 186.285C274.402 179.418 260.465 175.245 246.123 174.027C231.781 172.808 217.342 174.571 203.711 179.205C197.467 181.384 191.404 184.107 184.978 186.013C178.072 187.928 171.018 189.264 163.891 190.007L109.591 197.541C93.6364 200.664 77.2775 201.124 61.1736 198.903C40.6301 194.909 22.8921 181.293 2.34865 177.663C-13.9413 174.849 -10.3214 184.561 -2.26694 194.546C20.8105 223.864 68.7759 235.392 104.433 232.941Z" fill="url(#paint3_radial_306_333)"/>
</g>
<g style="mix-blend-mode:overlay" opacity="0.3">
<path d="M-10.3206 108.314C6.96494 131.823 32.4859 151.974 62.0794 152.246C91.6729 152.519 118.008 132.186 142.443 114.486C164.992 96.9044 190.364 83.3061 217.468 74.2756C244.829 65.3134 274.565 67.1308 300.638 79.3587" stroke="#FF4084" stroke-width="37.4482" stroke-miterlimit="10"/>
</g>
<g style="mix-blend-mode:overlay" opacity="0.6">
<path d="M26.5144 162.14C41.3313 172.809 59.1362 178.497 77.3754 178.388C108.869 176.845 134.21 152.882 162.627 138.994C186.544 127.397 213.238 122.804 239.641 125.742C256.112 127.648 272.855 132.459 289.146 129.282C290.474 129.16 291.764 128.777 292.945 128.154C294.125 127.531 295.172 126.68 296.024 125.651C296.952 123.764 297.387 121.672 297.29 119.569C298.47 107.888 296.304 96.1117 291.046 85.6218C286.813 80.037 281.333 75.5261 275.046 72.452C268.759 69.3779 261.839 67.8263 254.846 67.9218C226.338 66.6511 199.369 80.448 175.658 96.4234C151.947 112.399 129.775 131.188 103.258 141.808C76.7417 152.428 44.4332 154.697 21.8082 137.542C15.6542 132.913 -2.80757 112.126 -2.89807 130.734C-3.35057 143.533 17.6454 156.059 26.5144 162.14Z" fill="url(#paint4_radial_306_333)"/>
</g>
<g style="mix-blend-mode:overlay">
<g style="mix-blend-mode:overlay">
<path d="M143.528 31.8866C144.323 28.9738 145.695 26.2512 147.561 23.881C149.426 21.5107 151.749 19.5411 154.389 18.0896C156.829 16.7941 159.547 16.1168 162.308 16.1168C165.068 16.1168 167.787 16.7941 170.226 18.0896C169.427 16.3159 168.179 14.7827 166.606 13.642C164.108 11.9415 161.195 10.9581 158.18 10.7981C155.166 10.6381 152.164 11.3076 149.502 12.7342C146.861 14.1858 144.539 16.1553 142.673 18.5256C140.807 20.8959 139.437 23.6185 138.642 26.5312C137.511 29.4505 137.511 32.6889 138.642 35.6082C139.112 36.5931 139.756 37.4848 140.542 38.2404C141.378 39.0364 142.323 39.7088 143.348 40.2373C142.476 37.5118 142.539 34.5715 143.528 31.8866Z" fill="#FF5859"/>
</g>
<g style="mix-blend-mode:screen">
<path d="M165.882 33.7029C167.945 31.757 169.44 29.2831 170.206 26.548C170.971 23.8129 170.978 20.9202 170.226 18.1815C167.786 16.8859 165.068 16.2086 162.307 16.2086C159.547 16.2086 156.828 16.8859 154.388 18.1815C151.748 19.633 149.426 21.6024 147.56 23.9727C145.694 26.343 144.323 29.0655 143.528 31.9783C142.576 34.7112 142.576 37.687 143.528 40.4199C146.802 42.0733 150.56 42.492 154.116 41.5998C158.736 40.2046 162.834 37.4543 165.882 33.7029Z" fill="#B77758"/>
</g>
</g>
<g style="mix-blend-mode:overlay">
<g style="mix-blend-mode:overlay">
<path d="M244.437 153.699C244.175 153.243 244.037 152.727 244.037 152.201C244.037 151.675 244.175 151.159 244.437 150.703C244.722 150.213 245.114 149.795 245.585 149.48C246.055 149.165 246.592 148.963 247.152 148.888H245.976C245.348 148.942 244.74 149.132 244.193 149.446C243.646 149.759 243.174 150.189 242.809 150.703C242.563 151.18 242.434 151.709 242.434 152.246C242.434 152.783 242.563 153.313 242.809 153.79C243.114 154.293 243.552 154.702 244.076 154.97H245.523C245.013 154.7 244.624 154.246 244.437 153.699Z" fill="#FF5859"/>
</g>
<g style="mix-blend-mode:overlay">
<path d="M248.604 151.157C248.689 150.642 248.602 150.114 248.356 149.654C248.111 149.194 247.72 148.829 247.246 148.615C246.685 148.69 246.149 148.893 245.678 149.208C245.208 149.522 244.815 149.941 244.53 150.431C244.268 150.886 244.13 151.403 244.13 151.928C244.13 152.454 244.268 152.971 244.53 153.426C244.737 153.939 245.123 154.359 245.616 154.606C246.429 154.436 247.166 154.009 247.72 153.388C248.273 152.768 248.614 151.986 248.693 151.157H248.604Z" fill="#FFA87F"/>
</g>
</g>
<g style="mix-blend-mode:multiply" opacity="0.2">
<path d="M98.5502 68.1941C92.7116 74.0822 85.6289 78.58 77.8254 81.3557C73.8777 82.666 69.6121 82.6481 65.6755 81.3047C61.7389 79.9613 58.3473 77.3659 56.0157 73.9127C54.836 71.6094 54.2151 69.0589 54.205 66.4695C53.1984 69.103 52.721 71.9101 52.7987 74.7294C52.8763 77.5488 53.5079 80.3251 54.658 82.8989C56.9846 86.3333 60.3605 88.9162 64.278 90.2587C68.1955 91.6011 72.4427 91.6302 76.3782 90.3418C84.2033 87.556 91.3124 83.0606 97.1925 77.1804C104.073 71.7281 110.164 65.3433 115.292 58.2095C118.298 53.8755 120.024 48.7786 120.27 43.5049C120.229 43.1126 120.229 42.7171 120.27 42.3248C119.368 44.7553 118.183 47.0708 116.741 49.2234C111.628 56.3998 105.5 62.7905 98.5502 68.1941Z" fill="#FF07CC"/>
</g>
<g style="mix-blend-mode:overlay" opacity="0.5">
<path d="M86.6957 30.6159C78.3136 32.1352 70.6905 36.4538 65.066 42.8696C61.1746 47.9796 58.1197 53.6787 56.016 59.7527C55.2015 61.9312 54.387 64.2005 53.7535 66.4697C53.7636 69.0592 54.3834 71.6096 55.5631 73.9129C57.8948 77.3661 61.2863 79.9615 65.2229 81.3049C69.1595 82.6483 73.4262 82.6662 77.3739 81.3559C85.1774 78.5803 92.2601 74.0824 98.0987 68.1944C105.017 62.7841 111.114 56.3937 116.199 49.2236C117.641 47.071 118.825 44.7555 119.727 42.325C119.184 25.9866 98.4607 28.0743 86.6957 30.6159Z" fill="#FF1F70"/>
</g>
<g style="mix-blend-mode:overlay">
<path d="M134.125 86.7116C136.274 87.9251 138.643 88.6965 141.093 88.9808C144.253 89.4672 147.479 88.7552 150.143 86.9839C151.372 85.9494 152.493 84.7938 153.492 83.5346L154.668 81.9917C154.285 79.1689 153.586 76.3981 152.586 73.7317C152.039 71.6298 150.982 69.6965 149.509 68.104C148.475 67.2564 147.248 66.6798 145.936 66.4263C144.625 66.1728 143.272 66.2502 141.998 66.6517C139.43 67.4086 137.054 68.7085 135.029 70.464C133.232 71.5966 131.741 73.1552 130.686 75.0024C129.933 76.3961 129.539 77.956 129.539 79.5409C129.539 81.1258 129.933 82.6855 130.686 84.0792C131.138 83.8069 133.039 86.0762 134.125 86.7116Z" fill="#FF1F70"/>
</g>
<g style="mix-blend-mode:multiply">
<path d="M142.449 93.2472C143.753 93.5944 145.114 93.6769 146.45 93.4898C147.787 93.3028 149.072 92.85 150.232 92.158C151.621 91.1091 152.729 89.7307 153.455 88.1464C154.182 86.5621 154.505 84.8215 154.396 83.081C154.396 82.5364 154.396 81.9917 154.396 81.5378L153.219 83.081C152.221 84.3402 151.099 85.4958 149.871 86.5303C147.206 88.3016 143.98 89.0136 140.821 88.5273C138.37 88.243 136.001 87.4715 133.852 86.258C132.766 85.6226 130.866 83.3533 129.689 83.6256C130.941 86.1011 132.742 88.2557 134.954 89.9236C137.167 91.5916 139.73 92.7286 142.449 93.2472Z" fill="#EC6FD2"/>
</g>
<g style="mix-blend-mode:overlay">
<path d="M201.448 148.796C200.599 150.461 200.105 152.285 199.999 154.152C199.84 156.459 200.515 158.747 201.901 160.597C202.749 161.508 203.689 162.329 204.706 163.047C205.063 163.341 205.459 163.585 205.882 163.773C207.963 163.391 209.997 162.782 211.946 161.958C213.538 161.459 214.973 160.551 216.109 159.326C216.691 158.507 217.063 157.556 217.189 156.558C217.315 155.56 217.194 154.546 216.833 153.607C216.166 151.672 215.084 149.906 213.665 148.433C212.71 147.174 211.51 146.124 210.136 145.347C209.071 144.805 207.892 144.522 206.697 144.522C205.502 144.522 204.324 144.805 203.258 145.347C203.439 146.346 201.81 147.979 201.448 148.796Z" fill="#FF1F70"/>
</g>
<g style="mix-blend-mode:multiply">
<path d="M196.928 155.332C196.502 157.365 196.892 159.485 198.014 161.232C198.842 162.177 199.878 162.916 201.041 163.389C202.204 163.862 203.46 164.056 204.711 163.955H205.887C205.464 163.767 205.069 163.522 204.711 163.229C203.694 162.511 202.755 161.689 201.906 160.778C200.521 158.929 199.845 156.641 200.005 154.333C200.11 152.467 200.604 150.643 201.453 148.978C201.453 148.161 203.445 146.527 203.264 145.71C201.601 146.787 200.179 148.198 199.089 149.854C197.998 151.511 197.263 153.376 196.928 155.332Z" fill="#FF07CC"/>
</g>
<path d="M199.284 39.6924C198.958 41.5392 199.211 43.4417 200.007 45.1385C200.441 46.7381 201.216 48.2242 202.279 49.4937C203.341 50.7632 204.666 51.7859 206.162 52.4909C208.259 52.8112 210.375 52.9931 212.496 53.0355C213.903 53.4689 215.369 53.6831 216.841 53.6708C218.286 53.2862 219.523 52.3476 220.285 51.0573C221.046 49.767 221.272 48.2282 220.913 46.7724C219.959 43.9057 217.997 41.4857 215.393 39.9647C211.863 37.4232 201.003 32.0678 199.284 39.6924Z" fill="#FFA87F"/>
<path d="M177.016 48.1336C176.07 47.8612 175.065 47.8612 174.119 48.1336C173.242 48.1371 172.377 48.3437 171.593 48.7373C170.808 49.1309 170.123 49.7009 169.594 50.4028C169.109 51.3935 168.715 52.4267 168.418 53.4891C168.054 54.1772 167.781 54.9093 167.603 55.6675C167.603 57.2106 168.962 58.5721 170.5 58.6629C172.116 58.5507 173.632 57.8387 174.753 56.6659C176.473 54.7598 180.636 50.0398 177.016 48.1336Z" fill="#FFA87F"/>
</g>
<defs>
<radialGradient id="paint0_radial_306_333" cx="0" cy="0" r="1" gradientUnits="userSpaceOnUse" gradientTransform="translate(64.9574 311.633) rotate(-2.95877) scale(476.938 478.351)">
<stop offset="0.31" stop-color="#FF4A89"/>
<stop offset="0.42" stop-color="#FF6269"/>
<stop offset="0.61" stop-color="#FF833C"/>
<stop offset="0.77" stop-color="#FF9C1B"/>
<stop offset="0.91" stop-color="#FFAB07"/>
<stop offset="1" stop-color="#FFB000"/>
</radialGradient>
<radialGradient id="paint1_radial_306_333" cx="0" cy="0" r="1" gradientUnits="userSpaceOnUse" gradientTransform="translate(66.2222 311.633) rotate(-4.34241) scale(531.657 533.232)">
<stop offset="0.31" stop-color="#E73D65"/>
<stop offset="0.42" stop-color="#FF6269"/>
<stop offset="0.61" stop-color="#FF833C"/>
<stop offset="0.77" stop-color="#FF9C1B"/>
<stop offset="0.91" stop-color="#FFAB07"/>
<stop offset="1" stop-color="#FFB000"/>
</radialGradient>
<radialGradient id="paint2_radial_306_333" cx="0" cy="0" r="1" gradientUnits="userSpaceOnUse" gradientTransform="translate(72.9432 271.833) rotate(-59.7763) scale(114.83 372.289)">
<stop stop-color="#050003"/>
<stop offset="1" stop-color="#5B0037" stop-opacity="0"/>
</radialGradient>
<radialGradient id="paint3_radial_306_333" cx="0" cy="0" r="1" gradientUnits="userSpaceOnUse" gradientTransform="translate(229.594 160.474) rotate(154.414) scale(185.936 409.846)">
<stop stop-color="#FF1F70" stop-opacity="0.67"/>
<stop offset="1" stop-color="#FF1F70" stop-opacity="0"/>
</radialGradient>
<radialGradient id="paint4_radial_306_333" cx="0" cy="0" r="1" gradientUnits="userSpaceOnUse" gradientTransform="translate(232.242 47.4494) rotate(143.054) scale(206.724 561.944)">
<stop stop-color="#FF1F70" stop-opacity="0.67"/>
<stop offset="1" stop-color="#FF1F70" stop-opacity="0"/>
</radialGradient>
</defs>
</svg>
