<svg width="33" height="125" viewBox="0 0 33 125" fill="none" xmlns="http://www.w3.org/2000/svg">
<path d="M32 62.0825C32.004 74.3458 28.3711 86.3349 21.5609 96.5333C14.7507 106.732 5.06899 114.682 -6.25967 119.377C-17.5883 124.073 -30.0551 125.304 -42.0833 122.914C-54.1114 120.524 -65.1606 114.62 -73.8335 105.95C-82.5064 97.2803 -88.4133 86.233 -90.8072 74.2057C-93.2011 62.1783 -91.9745 49.7111 -87.2824 38.3809C-82.5904 27.0507 -74.6437 17.3665 -64.4474 10.553C-54.2511 3.73944 -42.2633 0.102662 -30 0.102661C-13.56 0.10266 2.20687 6.63203 13.8335 18.2549C25.4602 29.8778 31.9947 45.6426 32 62.0825Z" fill="url(#paint0_radial_306_639)"/>
<g opacity="0.5">
<path opacity="0.5" d="M1.14044 8.20251C-2.43734 9.65039 -6.70983 9.58804 -10.1348 11.6663C-13.928 14.0021 -16.714 17.6618 -17.9503 21.9331C-19.1036 25.6532 -20.5902 29.5535 -23.0634 32.8303C-25.2309 35.7122 -29.6007 36.7998 -33.1507 37.839C-37.7706 39.2245 -42.8767 38.8296 -47.3368 40.9425C-50.9076 42.6329 -54.6869 46.0413 -57.2365 49.0825C-59.4596 51.7497 -59.4943 53.4192 -60.46 56.5297C-61.634 60.3261 -62.6414 64.2956 -64.2531 67.7664C-65.8649 71.2371 -68.602 74.1398 -71.7769 76.5714C-73.8193 78.1302 -75.9452 78.9061 -78.203 80.0353C-80.6116 81.2501 -82.8628 82.7529 -84.907 84.5105C-85.6005 85.1186 -86.1489 85.8736 -86.5118 86.7204C-86.0811 87.8081 -84.504 90.877 -84.1845 91.4312C-84.1845 91.4312 -83.9066 91.1888 -81.7113 90.6484C-80.4252 90.346 -79.1604 89.9595 -77.9251 89.4915C-73.6665 87.8566 -69.79 84.2611 -66.7263 80.9497C-63.9127 77.9085 -62.287 74.7633 -60.3557 71.1817C-58.2299 67.2399 -57.8478 62.9932 -56.3333 58.7119C-55.1245 55.2966 -53.1376 52.0476 -50.1643 49.8861C-45.996 46.838 -41.4178 47.3714 -36.5617 46.8518C-31.8377 46.3461 -27.0581 44.9398 -23.4872 41.67C-19.5135 38.0329 -17.7211 32.5324 -15.0464 27.8562C-10.0375 19.0997 -3.3474 12.6639 7.33038 12.2275C5.34808 10.7658 3.28117 9.42187 1.14044 8.20251Z" fill="url(#paint1_radial_306_639)"/>
<path opacity="0.5" d="M10.144 14.472C4.78778 14.3751 -1.66612 17.4994 -5.83441 20.6169C-9.86376 23.6165 -11.9618 28.2373 -14.6712 32.2207C-17.596 36.5227 -18.513 42.9308 -22.5006 46.3946C-25.8075 49.2627 -31.1846 50.0039 -35.4015 50.7383C-40.7855 51.6666 -46.2946 51.431 -50.3448 55.7816C-54.7563 60.534 -54.2561 66.2908 -56.0901 72.0754C-57.9242 77.86 -62.155 82.3145 -66.3233 86.4503C-70.6755 90.6785 -76.0584 93.7015 -81.9405 95.2207C-80.3937 97.6257 -78.683 99.9218 -76.8204 102.093C-75.5838 103.534 -75.431 103.555 -73.7012 102.786C-72.3117 102.183 -70.9223 101.553 -69.5329 100.867C-64.7295 98.419 -60.3937 95.1504 -56.7223 91.2095C-50.4004 84.365 -52.29 73.6688 -49.4348 65.4872C-47.8647 60.9843 -44.1549 59.4602 -39.7991 59.2523C-34.7763 59.0514 -29.2255 58.518 -24.4667 56.7099C-15.359 53.2461 -12.1285 44.3856 -7.36975 36.8206C-4.43018 32.3766 -0.615356 28.5749 3.84296 25.6463C8.20578 22.7714 12.4227 21.9331 17.3899 21.6006C15.1762 19.0289 12.7526 16.6446 10.144 14.472Z" fill="url(#paint2_radial_306_639)"/>
<path opacity="0.5" d="M19.2517 23.9145C7.7472 23.2702 -2.45123 34.209 -7.1475 43.492C-9.64153 48.4384 -11.9549 52.879 -16.6929 56.2112C-21.6115 59.675 -27.1623 60.4301 -32.9492 61.4069C-37.7289 62.2105 -42.3904 62.5015 -45.2248 67.1568C-47.5938 71.0502 -47.9481 75.6501 -48.5942 80.1185C-50.4005 92.5882 -60.4044 101.947 -70.8876 108.12C-70.2832 108.653 -67.6225 110.808 -67.6225 110.808C-66.7888 110.808 -64.8436 109.09 -64.1489 108.584C-57.5786 103.657 -52.1323 97.395 -48.1704 90.212C-46.781 87.5795 -46.2739 84.6699 -45.7181 81.788C-44.8706 77.389 -45.1484 71.7429 -41.8555 68.3484C-39.5351 65.9584 -36.7424 66.0138 -33.762 65.3072C-30.0939 64.4343 -26.2661 63.984 -22.6466 63.1457C-17.8947 62.0512 -12.9206 59.5364 -10.239 55.3521C-8.00895 51.8883 -6.37637 48.2444 -3.98655 44.9953C2.09221 36.7376 11.5264 28.9994 22.503 28.6253C21.5165 27.0042 20.4327 25.434 19.2517 23.9145Z" fill="url(#paint3_radial_306_639)"/>
<path opacity="0.5" d="M30.8605 48.6184C22.2043 50.2048 15.7782 59.0099 11.1027 65.7366C5.81596 73.357 -0.207214 81.0536 -7.86298 86.478C-15.6924 92.0201 -25.2934 94.4655 -33.755 98.8507C-41.8554 103.049 -50.8659 109.859 -54.5965 118.491C-52.3019 119.534 -49.9306 120.4 -47.5034 121.082C-46.8087 120.791 -45.1901 116.163 -44.676 115.359C-42.5687 112.072 -39.8469 109.219 -36.6589 106.956C-29.0171 101.532 -19.3953 100.506 -11.0031 96.9041C-6.5083 94.9643 -2.19411 93.0869 1.50177 89.8032C5.01008 86.7066 7.87231 82.9449 10.5331 79.1139C15.0765 72.5534 22.7879 61.393 32.2568 63.1803C32.3698 58.2884 31.901 53.4003 30.8605 48.6184Z" fill="url(#paint4_radial_306_639)"/>
<path opacity="0.5" d="M17.4454 75.0127C15.2153 77.5898 13.5619 80.5548 11.5542 83.3259C9.3195 86.2206 6.837 88.9163 4.13461 91.3827C-0.513035 95.8233 -6.66125 97.8324 -12.8303 99.5712C-25.1893 103.035 -40.2299 108.577 -44.7872 121.809C-44.1025 122.009 -43.4066 122.168 -42.7031 122.287C-42.1682 121.504 -41.3137 119.37 -40.8065 118.539C-39.9952 117.113 -39.0657 115.758 -38.0277 114.486C-35.5406 111.494 -31.7058 109.055 -28.3017 107.254C-19.8886 102.786 -10.2391 102.003 -1.59679 98.248C6.63559 94.6872 10.7831 87.2885 16.0559 80.5687C18.4319 77.5482 20.7522 74.6317 23.8645 72.2555C25.3564 71.0875 26.9904 70.1122 28.7275 69.3528C29.0888 69.2004 31.7287 68.5838 31.9163 68.3483C31.9163 68.3483 32.1247 65.9721 32.1594 65.4041C25.907 65.605 21.2594 70.6206 17.4454 75.0127Z" fill="url(#paint5_radial_306_639)"/>
<path opacity="0.5" d="M30.652 71.7222C24.1703 74.2369 18.0915 80.7904 14.2358 86.3395C12.1517 89.2907 10.3524 92.4427 7.55269 94.7358C4.44731 97.2713 1.06403 98.8924 -2.49987 100.687C-9.32892 104.088 -17.0889 104.601 -23.9735 107.933C-30.7053 111.196 -36.534 115.553 -39.0488 122.966C-37.8748 123.146 -36.6868 123.285 -35.5058 123.402C-34.8697 123.483 -34.2296 123.53 -33.5884 123.541C-32.3379 122.155 -31.0596 119.142 -29.7049 117.729C-27.0017 115.044 -23.6929 113.043 -20.0553 111.896C-12.8581 109.45 -5.23704 109.318 1.84906 106.353C5.5747 104.913 8.88502 102.576 11.4848 99.5505C13.9024 96.6617 16.1741 93.5027 18.939 90.9256C20.4483 89.5304 22.1235 88.3253 23.9271 87.3371C26.3794 85.9862 27.2548 86.3533 28.276 83.6377C29.7862 79.6386 30.8781 75.4947 31.5342 71.2719L30.652 71.7222Z" fill="url(#paint6_radial_306_639)"/>
<path opacity="0.5" d="M26.435 35.6014C16.0143 35.74 8.99073 46.2077 3.36353 53.5648C-3.10427 62.072 -10.2043 69.0897 -19.8817 73.7035C-22.2715 74.8396 -24.6335 75.6502 -26.5579 77.5206C-28.1543 79.1243 -29.6551 80.8198 -31.0526 82.5986C-34.4429 86.7552 -37.7011 91.0988 -41.4734 94.9229C-44.947 98.456 -48.7193 102.072 -52.9362 104.712C-55.2427 106.102 -57.3055 107.859 -59.0428 109.914C-60.105 111.438 -61.0881 113.015 -61.9883 114.639C-61.4536 115.011 -60.8917 115.342 -60.3071 115.63C-58.9872 110.593 -54.1172 107.649 -50.0879 104.885C-45.5172 101.778 -41.2492 98.2502 -37.3399 94.3479C-34.4269 91.4138 -31.7574 88.2491 -29.3575 84.8847C-26.4195 80.5184 -22.2282 77.138 -17.332 75.186C-8.37714 71.3204 -1.21464 64.4135 4.40561 56.5991C10.2621 48.4522 16.4659 39.0375 27.4979 37.9984C27.1575 37.2017 26.8032 36.412 26.435 35.6014Z" fill="url(#paint7_radial_306_639)"/>
</g>
<defs>
<radialGradient id="paint0_radial_306_639" cx="0" cy="0" r="1" gradientUnits="userSpaceOnUse" gradientTransform="translate(-53.7014 86.8192) rotate(-45.3586) scale(89.624 89.6239)">
<stop stop-color="#540044"/>
<stop offset="0.4" stop-color="#530246"/>
<stop offset="0.54" stop-color="#50084D"/>
<stop offset="0.64" stop-color="#4B1358"/>
<stop offset="0.73" stop-color="#432369"/>
<stop offset="0.8" stop-color="#39387F"/>
<stop offset="0.86" stop-color="#2D519B"/>
<stop offset="0.92" stop-color="#1E6FBB"/>
<stop offset="0.97" stop-color="#0D91DF"/>
<stop offset="1" stop-color="#00ADFD"/>
</radialGradient>
<radialGradient id="paint1_radial_306_639" cx="0" cy="0" r="1" gradientUnits="userSpaceOnUse" gradientTransform="translate(-60.1682 49.9346) scale(68.8116 68.6183)">
<stop stop-color="#690054"/>
<stop offset="0.4" stop-color="#680256"/>
<stop offset="0.55" stop-color="#64095C"/>
<stop offset="0.65" stop-color="#5D1468"/>
<stop offset="0.74" stop-color="#522579"/>
<stop offset="0.81" stop-color="#453B8E"/>
<stop offset="0.87" stop-color="#3457A9"/>
<stop offset="0.93" stop-color="#2177C8"/>
<stop offset="0.98" stop-color="#0B9BEC"/>
<stop offset="1" stop-color="#00ADFD"/>
</radialGradient>
<radialGradient id="paint2_radial_306_639" cx="0" cy="0" r="1" gradientUnits="userSpaceOnUse" gradientTransform="translate(-54.0546 59.0099) scale(72.9799 72.7749)">
<stop stop-color="#690054"/>
<stop offset="0.4" stop-color="#680256"/>
<stop offset="0.55" stop-color="#64095C"/>
<stop offset="0.65" stop-color="#5D1468"/>
<stop offset="0.74" stop-color="#522579"/>
<stop offset="0.81" stop-color="#453B8E"/>
<stop offset="0.87" stop-color="#3457A9"/>
<stop offset="0.93" stop-color="#2177C8"/>
<stop offset="0.98" stop-color="#0B9BEC"/>
<stop offset="1" stop-color="#00ADFD"/>
</radialGradient>
<radialGradient id="paint3_radial_306_639" cx="0" cy="0" r="1" gradientUnits="userSpaceOnUse" gradientTransform="translate(-44.6482 67.4755) scale(69.4576 69.2626)">
<stop stop-color="#690054"/>
<stop offset="0.4" stop-color="#680256"/>
<stop offset="0.55" stop-color="#64095C"/>
<stop offset="0.65" stop-color="#5D1468"/>
<stop offset="0.74" stop-color="#522579"/>
<stop offset="0.81" stop-color="#453B8E"/>
<stop offset="0.87" stop-color="#3457A9"/>
<stop offset="0.93" stop-color="#2177C8"/>
<stop offset="0.98" stop-color="#0B9BEC"/>
<stop offset="1" stop-color="#00ADFD"/>
</radialGradient>
<radialGradient id="paint4_radial_306_639" cx="0" cy="0" r="1" gradientUnits="userSpaceOnUse" gradientTransform="translate(-30.1911 84.9539) scale(62.6703 62.4943)">
<stop stop-color="#690054"/>
<stop offset="0.4" stop-color="#680256"/>
<stop offset="0.55" stop-color="#64095C"/>
<stop offset="0.65" stop-color="#5D1468"/>
<stop offset="0.74" stop-color="#522579"/>
<stop offset="0.81" stop-color="#453B8E"/>
<stop offset="0.87" stop-color="#3457A9"/>
<stop offset="0.93" stop-color="#2177C8"/>
<stop offset="0.98" stop-color="#0B9BEC"/>
<stop offset="1" stop-color="#00ADFD"/>
</radialGradient>
<radialGradient id="paint5_radial_306_639" cx="0" cy="0" r="1" gradientUnits="userSpaceOnUse" gradientTransform="translate(-23.1955 93.946) scale(54.0141 53.8624)">
<stop stop-color="#690054"/>
<stop offset="0.4" stop-color="#680256"/>
<stop offset="0.55" stop-color="#64095C"/>
<stop offset="0.65" stop-color="#5D1468"/>
<stop offset="0.74" stop-color="#522579"/>
<stop offset="0.81" stop-color="#453B8E"/>
<stop offset="0.87" stop-color="#3457A9"/>
<stop offset="0.93" stop-color="#2177C8"/>
<stop offset="0.98" stop-color="#0B9BEC"/>
<stop offset="1" stop-color="#00ADFD"/>
</radialGradient>
<radialGradient id="paint6_radial_306_639" cx="0" cy="0" r="1" gradientUnits="userSpaceOnUse" gradientTransform="translate(-19.2286 97.4861) scale(49.561 49.4218)">
<stop stop-color="#690054"/>
<stop offset="0.4" stop-color="#680256"/>
<stop offset="0.55" stop-color="#64095C"/>
<stop offset="0.65" stop-color="#5D1468"/>
<stop offset="0.74" stop-color="#522579"/>
<stop offset="0.81" stop-color="#453B8E"/>
<stop offset="0.87" stop-color="#3457A9"/>
<stop offset="0.93" stop-color="#2177C8"/>
<stop offset="0.98" stop-color="#0B9BEC"/>
<stop offset="1" stop-color="#00ADFD"/>
</radialGradient>
<radialGradient id="paint7_radial_306_639" cx="0" cy="0" r="1" gradientUnits="userSpaceOnUse" gradientTransform="translate(-36.8744 75.7471) scale(65.7687 65.584)">
<stop stop-color="#690054"/>
<stop offset="0.4" stop-color="#680256"/>
<stop offset="0.55" stop-color="#64095C"/>
<stop offset="0.65" stop-color="#5D1468"/>
<stop offset="0.74" stop-color="#522579"/>
<stop offset="0.81" stop-color="#453B8E"/>
<stop offset="0.87" stop-color="#3457A9"/>
<stop offset="0.93" stop-color="#2177C8"/>
<stop offset="0.98" stop-color="#0B9BEC"/>
<stop offset="1" stop-color="#00ADFD"/>
</radialGradient>
</defs>
</svg>
