<svg width="253" height="230" viewBox="0 0 253 230" fill="none" xmlns="http://www.w3.org/2000/svg">
<path opacity="0.4" d="M184.887 123.11L0.114669 7.74494C0.103622 7.73513 0.0947764 7.72306 0.0887165 7.70955C0.0826565 7.69604 0.0795288 7.68138 0.0795288 7.66655C0.0795288 7.65173 0.0826565 7.6371 0.0887165 7.62359C0.0947764 7.61008 0.103622 7.598 0.114669 7.5882C0.114669 7.5882 0.114672 7.5882 0.253091 7.5882L186.098 121.23C186.35 121.384 186.531 121.634 186.601 121.923C186.671 122.212 186.624 122.517 186.47 122.771C186.316 123.025 186.069 123.207 185.781 123.277C185.494 123.347 185.191 123.3 184.939 123.145L184.887 123.11Z" fill="#FFC648"/>
<path opacity="0.4" d="M208.102 183.871L74.9155 100.657C74.9076 100.65 74.9012 100.641 74.8968 100.632C74.8925 100.622 74.8902 100.611 74.8902 100.601C74.8902 100.59 74.8925 100.579 74.8968 100.57C74.9012 100.56 74.9076 100.551 74.9155 100.544C74.9155 100.544 74.9155 100.544 75.0153 100.544L208.975 182.515C209.156 182.627 209.287 182.806 209.337 183.015C209.387 183.223 209.353 183.443 209.243 183.627C209.132 183.81 208.953 183.941 208.746 183.992C208.539 184.042 208.321 184.008 208.139 183.897L208.102 183.871Z" fill="#FFC648"/>
<ellipse cx="33.2235" cy="1.89706" rx="1.89394" ry="1.89706" fill="#FFC648"/>
<ellipse cx="75.8372" cy="197.294" rx="1.89394" ry="1.89706" fill="#FFC648"/>
<ellipse cx="107.561" cy="179.746" rx="2.36742" ry="2.37132" fill="#FFC648"/>
<ellipse cx="197.049" cy="90.1103" rx="1.89394" ry="1.89706" fill="#FFC648"/>
<ellipse cx="236.349" cy="131.371" rx="2.36742" ry="2.37132" fill="#FFC648"/>
<path d="M194.68 209.625L197.318 216.944L204.625 219.586L197.318 222.225L194.68 229.544L192.046 222.225L184.739 219.586L192.046 216.944L194.68 209.625Z" fill="#FFC648"/>
<path d="M242.028 7.5882L244.917 15.6045L252.921 18.4982L244.917 21.388L242.028 29.4044L239.143 21.388L231.14 18.4982L239.143 15.6045L242.028 7.5882Z" fill="#FFC648"/>
</svg>
