<svg width="504" height="504" viewBox="0 0 504 504" fill="none" xmlns="http://www.w3.org/2000/svg">
<path d="M33.7129 126.068C8.81564 169.226 -2.72714 218.796 0.54361 268.512C3.81436 318.228 21.7518 365.859 52.0886 405.384C82.4254 444.908 123.8 474.552 170.982 490.568C218.163 506.585 269.035 508.254 317.166 495.366C365.296 482.478 408.526 455.611 441.389 418.161C474.252 380.711 495.275 334.359 501.799 284.964C508.323 235.569 500.056 185.349 478.042 140.651C456.029 95.9539 421.257 58.7855 378.123 33.8446C349.457 17.2697 317.806 6.50685 284.978 2.17142C252.15 -2.16401 218.789 0.0130368 186.803 8.57803C154.817 17.143 124.832 31.928 98.5641 52.0878C72.2959 72.2475 50.2589 97.3867 33.7129 126.068Z" fill="url(#paint0_radial_306_286)"/>
<g opacity="0.5">
<path opacity="0.5" d="M363.217 26.0254C383.204 53.125 400.283 84.4307 427.158 105.066C439.749 114.692 452.566 124.064 465.241 133.605C471.424 138.235 478.114 142.864 482.179 149.47C487.176 157.938 490.225 169.23 493.048 178.461C472.045 142.3 433.369 126.717 402.965 100.606C387.233 86.8013 373.317 71.0555 361.551 53.746C350.259 37.204 336.595 19.8716 319.516 9.39868C334.572 13.56 349.203 19.1267 363.217 26.0254Z" fill="url(#paint1_radial_306_286)"/>
<path opacity="0.5" d="M286.204 2.42621C314.068 11.9958 334.958 36.1313 352.828 58.5449C370.698 80.9585 388.596 102.977 413.241 118.418C435.119 132.137 454.26 143.824 472.129 163.584C481.539 173.644 489.553 184.924 495.956 197.12C503.437 212.166 503.719 231.587 503.973 248.242C486.188 224.304 474.501 196.753 456.716 172.956C447.597 160.733 436.587 148.679 423.488 140.662C411.519 133.323 397.799 128.016 385.66 121.241C360.591 107.268 341.253 84.5437 321.944 63.6261C312.148 52.9839 304.046 40.4786 293.516 30.6267C280.779 18.8012 266.655 8.56406 251.453 0.139605C263.075 0.110311 274.686 0.874342 286.204 2.42621Z" fill="url(#paint2_radial_306_286)"/>
<path opacity="0.5" d="M151.009 21.2833C196.883 30.4294 200.299 73.9582 228.925 102.272C243.963 116.983 262.38 127.78 282.562 133.718C304.667 140.409 326.602 143.711 346.109 157.148C364.656 169.936 378.715 180.719 387.156 202.568C393.395 218.715 396.839 236.104 404.546 251.574C413.89 270.346 428.654 285.448 445.197 298.01C453.666 304.39 462.446 310.12 471.423 315.625C476.251 318.589 492.568 327.763 492.568 327.763C491.488 331.533 490.216 335.245 488.757 338.885C477.126 332.11 465.071 325.985 453.356 319.379C443.362 313.733 437.631 307.015 429.783 298.687C419.366 287.678 407.594 278.052 400.65 264.813C392.181 248.553 387.946 232.35 383.542 214.961C378.348 194.297 359.716 180.635 343.709 168.468C306.756 140.239 250.351 155.398 221.669 113.422C208.881 94.7345 206.481 73.2807 190.616 56.541C183.474 48.9757 176.501 41.0999 166.959 36.301C157.417 31.5022 146.69 30.8811 136.555 28.1993C141.241 25.7152 146.097 23.4005 151.009 21.2833Z" fill="url(#paint3_radial_306_286)"/>
<path opacity="0.5" d="M126.561 33.5629C141.1 39.4627 158.461 39.2086 172.379 47.6772C187.793 57.1951 199.114 72.1076 204.138 89.5122C208.824 104.671 214.865 120.564 224.915 133.916C233.723 145.659 251.48 150.091 265.906 154.326C284.679 159.971 305.428 158.362 323.552 166.972C338.063 173.86 353.42 187.748 363.781 200.141C372.814 211.009 372.955 217.812 376.879 230.487C381.65 245.956 385.744 262.131 392.293 276.274C398.843 290.416 409.965 302.244 422.867 312.153C431.166 318.504 439.805 321.666 448.98 326.267C458.767 331.217 467.915 337.341 476.222 344.503C479.04 346.98 481.269 350.057 482.743 353.508C480.993 357.94 474.585 370.445 473.286 372.703C473.286 372.703 472.157 371.715 463.236 369.513C458.01 368.281 452.87 366.706 447.851 364.799C430.545 358.137 414.793 343.486 402.343 329.993C390.91 317.601 384.304 304.785 376.456 290.19C367.817 274.128 366.265 256.824 360.111 239.379C355.199 225.462 347.125 212.223 335.042 203.415C318.104 190.995 299.5 193.168 279.767 191.051C260.57 188.99 241.148 183.26 226.638 169.936C210.49 155.116 203.206 132.702 192.338 113.648C171.984 77.9667 144.798 51.7422 101.408 49.9638C109.463 44.0079 117.862 38.5315 126.561 33.5629Z" fill="url(#paint4_radial_306_286)"/>
<path opacity="0.5" d="M89.9745 59.1099C111.74 58.7147 137.966 71.4459 154.904 84.1488C171.278 96.3719 179.804 115.2 190.813 131.432C202.698 148.962 206.425 175.074 222.629 189.188C236.067 200.875 257.917 203.895 275.053 206.887C296.931 210.67 319.318 209.71 335.776 227.438C353.702 246.803 351.67 270.261 359.123 293.832C366.576 317.403 383.768 335.554 400.706 352.407C418.391 369.636 440.265 381.954 464.168 388.144C457.882 397.944 450.931 407.301 443.362 416.147C438.337 422.019 437.716 422.104 430.687 418.97C425.041 416.514 419.394 413.945 413.748 411.151C394.23 401.177 376.611 387.858 361.692 371.8C336.002 343.91 343.681 300.325 332.078 266.987C325.698 248.638 310.623 242.428 292.923 241.581C272.512 240.762 249.956 238.588 230.618 231.221C193.608 217.106 180.481 181.002 161.143 150.176C149.198 132.068 133.696 116.576 115.579 104.643C97.8508 92.928 80.715 89.5123 60.5303 88.1573C69.5259 77.6783 79.3744 67.9626 89.9745 59.1099Z" fill="url(#paint5_radial_306_286)"/>
<path opacity="0.5" d="M52.9647 97.5852C99.7141 94.9599 141.156 139.533 160.24 177.36C170.375 197.515 179.775 215.61 199.028 229.188C219.016 243.302 241.572 246.379 265.088 250.359C284.51 253.634 303.453 254.819 314.971 273.789C324.597 289.654 326.037 308.398 328.662 326.605C336.002 377.417 376.654 415.554 419.253 440.706C416.797 442.879 405.985 451.658 405.985 451.658C402.598 451.658 394.693 444.658 391.87 442.597C365.171 422.52 343.04 397.003 326.94 367.734C321.294 357.007 319.233 345.151 316.975 333.408C313.531 315.483 314.66 292.476 301.279 278.644C291.85 268.905 280.501 269.131 268.39 266.252C253.485 262.695 237.93 260.86 223.222 257.445C203.912 252.985 183.699 242.737 172.803 225.687C163.741 211.573 157.106 196.725 147.395 183.485C122.694 149.837 84.3569 118.305 39.7529 116.781C43.7616 110.175 48.1655 103.777 52.9647 97.5852Z" fill="url(#paint6_radial_306_286)"/>
<path opacity="0.5" d="M5.79199 198.249C40.967 204.714 67.0801 240.592 86.0791 268.002C107.562 299.054 132.038 330.416 163.148 352.519C194.964 375.102 233.978 385.067 268.362 402.936C301.279 420.042 337.894 447.791 353.054 482.964C343.729 487.214 334.093 490.743 324.23 493.522C321.407 492.336 314.83 473.48 312.741 470.205C304.178 456.808 293.117 445.183 280.163 435.963C249.109 413.86 210.01 409.682 175.908 395.004C157.643 387.099 140.112 379.449 125.093 366.069C110.837 353.451 99.2062 338.123 88.394 322.512C69.9314 295.779 38.5956 250.303 0.117676 257.586C-0.341187 237.652 1.56354 217.735 5.79199 198.249Z" fill="url(#paint7_radial_306_286)"/>
<path opacity="0.5" d="M60.3044 305.801C69.3663 316.302 76.0853 328.384 84.2439 339.675C93.3246 351.471 103.412 362.455 114.394 372.505C133.28 390.6 158.264 398.786 183.332 405.872C233.554 419.986 294.673 442.569 313.192 496.486C310.409 497.3 307.581 497.951 304.723 498.434C302.549 495.244 299.077 486.55 297.016 483.162C293.719 477.352 289.942 471.828 285.724 466.648C275.617 454.454 260.034 444.517 246.201 437.178C212.014 418.97 172.802 415.78 137.684 400.48C104.231 385.971 87.3773 355.822 65.9505 328.44C56.2957 316.133 46.8668 304.248 34.2196 294.566C28.1572 289.806 21.5175 285.832 14.4583 282.738C12.9904 282.117 2.26291 279.605 1.5007 278.645C1.5007 278.645 0.653687 268.962 0.512543 266.648C25.9199 267.466 44.8059 287.904 60.3044 305.801Z" fill="url(#paint8_radial_306_286)"/>
<path opacity="0.5" d="M6.63879 292.392C32.9777 302.639 57.6793 329.344 73.3471 351.955C81.8162 363.98 89.1279 376.824 100.505 386.168C113.124 396.5 126.872 403.105 141.354 410.417C169.105 424.277 200.638 426.366 228.614 439.944C255.969 453.24 279.655 470.996 289.874 501.2C285.103 501.934 280.276 502.499 275.476 502.979C272.892 503.309 270.29 503.498 267.685 503.543C262.603 497.898 257.409 485.618 251.904 479.859C240.92 468.919 227.474 460.768 212.692 456.091C183.446 446.126 152.477 445.59 123.682 433.508C108.542 427.64 95.0906 418.117 84.5264 405.787C74.7022 394.016 65.471 381.143 54.2353 370.642C48.1024 364.957 41.2951 360.047 33.9659 356.02C24.0006 350.515 20.4436 352.011 16.2937 340.946C10.157 324.65 5.72009 307.765 3.05365 290.557L6.63879 292.392Z" fill="url(#paint9_radial_306_286)"/>
<path opacity="0.5" d="M23.7747 145.207C66.1202 145.772 94.6611 188.425 117.528 218.404C143.81 253.069 172.662 281.665 211.987 300.465C221.698 305.095 231.296 308.398 239.116 316.019C245.603 322.554 251.702 329.463 257.381 336.711C271.157 353.648 284.397 371.348 299.726 386.93C313.842 401.327 329.171 416.062 346.306 426.817C355.679 432.483 364.061 439.644 371.121 448.017C375.437 454.226 379.432 460.651 383.091 467.269C380.918 468.784 378.634 470.133 376.259 471.306C370.895 450.783 351.106 438.786 334.732 427.523C316.159 414.863 298.815 400.488 282.929 384.587C271.093 372.631 260.245 359.736 250.493 346.027C238.554 328.235 221.522 314.46 201.626 306.506C165.237 290.755 136.132 262.611 113.293 230.769C89.495 197.571 64.2853 159.209 19.4555 154.974C20.8388 151.728 22.2785 148.51 23.7747 145.207Z" fill="url(#paint10_radial_306_286)"/>
</g>
<defs>
<radialGradient id="paint0_radial_306_286" cx="0" cy="0" r="1" gradientUnits="userSpaceOnUse" gradientTransform="translate(347.296 307.951) rotate(-150.001) scale(382.742 382.731)">
<stop stop-color="#540044"/>
<stop offset="0.23173" stop-color="#530246"/>
<stop offset="0.40367" stop-color="#50084D"/>
<stop offset="0.517376" stop-color="#58134D"/>
<stop offset="0.73" stop-color="#693C23"/>
<stop offset="0.8" stop-color="#7F5238"/>
<stop offset="0.86" stop-color="#9B6F2D"/>
<stop offset="0.92" stop-color="#BB861E"/>
<stop offset="0.970741" stop-color="#DFB10D"/>
</radialGradient>
<radialGradient id="paint1_radial_306_286" cx="0" cy="0" r="1" gradientUnits="userSpaceOnUse" gradientTransform="translate(444.296 94.1721) rotate(180) scale(125.191 145.804)">
<stop stop-color="#8D1D77"/>
<stop offset="0.25" stop-color="#8A0172"/>
<stop offset="0.333333" stop-color="#82003E"/>
<stop offset="0.505208" stop-color="#681423"/>
<stop offset="0.619792" stop-color="#792525"/>
<stop offset="0.81" stop-color="#8E593B"/>
<stop offset="0.87" stop-color="#A97A34"/>
<stop offset="0.93" stop-color="#C8A321"/>
<stop offset="0.98" stop-color="#ECD60B"/>
<stop offset="1" stop-color="#FDF300"/>
</radialGradient>
<radialGradient id="paint2_radial_306_286" cx="0" cy="0" r="1" gradientUnits="userSpaceOnUse" gradientTransform="translate(433.03 124.546) rotate(180) scale(182.175 213.971)">
<stop stop-color="#8D1D77"/>
<stop offset="0.25" stop-color="#8A0172"/>
<stop offset="0.333333" stop-color="#82003E"/>
<stop offset="0.505208" stop-color="#681423"/>
<stop offset="0.619792" stop-color="#792525"/>
<stop offset="0.81" stop-color="#8E593B"/>
<stop offset="0.87" stop-color="#A97A34"/>
<stop offset="0.93" stop-color="#C8A321"/>
<stop offset="0.98" stop-color="#ECD60B"/>
<stop offset="1" stop-color="#FDF300"/>
</radialGradient>
<radialGradient id="paint3_radial_306_286" cx="0" cy="0" r="1" gradientUnits="userSpaceOnUse" gradientTransform="translate(392.549 180.54) rotate(180) scale(256.838 273.909)">
<stop stop-color="#8D1D77"/>
<stop offset="0.25" stop-color="#8A0172"/>
<stop offset="0.333333" stop-color="#82003E"/>
<stop offset="0.505208" stop-color="#681423"/>
<stop offset="0.619792" stop-color="#792525"/>
<stop offset="0.81" stop-color="#8E593B"/>
<stop offset="0.87" stop-color="#A97A34"/>
<stop offset="0.93" stop-color="#C8A321"/>
<stop offset="0.98" stop-color="#ECD60B"/>
<stop offset="1" stop-color="#FDF300"/>
</radialGradient>
<radialGradient id="paint4_radial_306_286" cx="0" cy="0" r="1" gradientUnits="userSpaceOnUse" gradientTransform="translate(375.61 203.619) rotate(180) scale(275.106 292.484)">
<stop stop-color="#8D1D77"/>
<stop offset="0.25" stop-color="#8A0172"/>
<stop offset="0.333333" stop-color="#82003E"/>
<stop offset="0.505208" stop-color="#681423"/>
<stop offset="0.619792" stop-color="#792525"/>
<stop offset="0.81" stop-color="#8E593B"/>
<stop offset="0.87" stop-color="#A97A34"/>
<stop offset="0.93" stop-color="#C8A321"/>
<stop offset="0.98" stop-color="#ECD60B"/>
<stop offset="1" stop-color="#FDF300"/>
</radialGradient>
<radialGradient id="paint5_radial_306_286" cx="0" cy="0" r="1" gradientUnits="userSpaceOnUse" gradientTransform="translate(350.769 240.582) rotate(180) scale(291.195 312.134)">
<stop stop-color="#8D1D77"/>
<stop offset="0.25" stop-color="#8A0172"/>
<stop offset="0.333333" stop-color="#82003E"/>
<stop offset="0.505208" stop-color="#681423"/>
<stop offset="0.619792" stop-color="#792525"/>
<stop offset="0.81" stop-color="#8E593B"/>
<stop offset="0.87" stop-color="#A97A34"/>
<stop offset="0.93" stop-color="#C8A321"/>
<stop offset="0.98" stop-color="#ECD60B"/>
<stop offset="1" stop-color="#FDF300"/>
</radialGradient>
<radialGradient id="paint6_radial_306_286" cx="0" cy="0" r="1" gradientUnits="userSpaceOnUse" gradientTransform="translate(312.636 275.074) rotate(180) scale(273.782 305.458)">
<stop stop-color="#8D1D77"/>
<stop offset="0.25" stop-color="#8A0172"/>
<stop offset="0.333333" stop-color="#82003E"/>
<stop offset="0.505208" stop-color="#681423"/>
<stop offset="0.619792" stop-color="#792525"/>
<stop offset="0.81" stop-color="#8E593B"/>
<stop offset="0.87" stop-color="#A97A34"/>
<stop offset="0.93" stop-color="#C8A321"/>
<stop offset="0.98" stop-color="#ECD60B"/>
<stop offset="1" stop-color="#FDF300"/>
</radialGradient>
<radialGradient id="paint7_radial_306_286" cx="0" cy="0" r="1" gradientUnits="userSpaceOnUse" gradientTransform="translate(253.88 346.309) rotate(180) scale(254.666 254.652)">
<stop stop-color="#8D1D77"/>
<stop offset="0.25" stop-color="#8A0172"/>
<stop offset="0.333333" stop-color="#82003E"/>
<stop offset="0.505208" stop-color="#681423"/>
<stop offset="0.619792" stop-color="#792525"/>
<stop offset="0.81" stop-color="#8E593B"/>
<stop offset="0.87" stop-color="#A97A34"/>
<stop offset="0.93" stop-color="#C8A321"/>
<stop offset="0.98" stop-color="#ECD60B"/>
<stop offset="1" stop-color="#FDF300"/>
</radialGradient>
<radialGradient id="paint8_radial_306_286" cx="0" cy="0" r="1" gradientUnits="userSpaceOnUse" gradientTransform="translate(225.347 382.873) rotate(180) scale(225.576 199.899)">
<stop stop-color="#8D1D77"/>
<stop offset="0.25" stop-color="#8A0172"/>
<stop offset="0.333333" stop-color="#82003E"/>
<stop offset="0.505208" stop-color="#681423"/>
<stop offset="0.619792" stop-color="#792525"/>
<stop offset="0.81" stop-color="#8E593B"/>
<stop offset="0.87" stop-color="#A97A34"/>
<stop offset="0.93" stop-color="#C8A321"/>
<stop offset="0.98" stop-color="#ECD60B"/>
<stop offset="1" stop-color="#FDF300"/>
</radialGradient>
<radialGradient id="paint9_radial_306_286" cx="0" cy="0" r="1" gradientUnits="userSpaceOnUse" gradientTransform="translate(209.294 397.356) rotate(180) scale(206.92 183.685)">
<stop stop-color="#8D1D77"/>
<stop offset="0.25" stop-color="#8A0172"/>
<stop offset="0.333333" stop-color="#82003E"/>
<stop offset="0.505208" stop-color="#681423"/>
<stop offset="0.619792" stop-color="#792525"/>
<stop offset="0.81" stop-color="#8E593B"/>
<stop offset="0.87" stop-color="#A97A34"/>
<stop offset="0.93" stop-color="#C8A321"/>
<stop offset="0.98" stop-color="#ECD60B"/>
<stop offset="1" stop-color="#FDF300"/>
</radialGradient>
<radialGradient id="paint10_radial_306_286" cx="0" cy="0" r="1" gradientUnits="userSpaceOnUse" gradientTransform="translate(280.93 308.724) rotate(180) scale(262.337 281.237)">
<stop stop-color="#8D1D77"/>
<stop offset="0.25" stop-color="#8A0172"/>
<stop offset="0.333333" stop-color="#82003E"/>
<stop offset="0.505208" stop-color="#681423"/>
<stop offset="0.619792" stop-color="#792525"/>
<stop offset="0.81" stop-color="#8E593B"/>
<stop offset="0.87" stop-color="#A97A34"/>
<stop offset="0.93" stop-color="#C8A321"/>
<stop offset="0.98" stop-color="#ECD60B"/>
<stop offset="1" stop-color="#FDF300"/>
</radialGradient>
</defs>
</svg>
