<svg width="342" height="459" viewBox="0 0 342 459" fill="none" xmlns="http://www.w3.org/2000/svg">
<path d="M36.9976 10L40.7114 20.2886L51 24.0024L40.7114 27.7114L36.9976 38L33.2886 27.7114L23 24.0024L33.2886 20.2886L36.9976 10Z" fill="#FFC648"/>
<path d="M323.997 14L328.772 27.2282L342 32.0031L328.772 36.7718L323.997 50L319.228 36.7718L306 32.0031L319.228 27.2282L323.997 14Z" fill="#FFC648"/>
<path d="M226.999 42L229.121 47.8792L235 50.0014L229.121 52.1208L226.999 58L224.879 52.1208L219 50.0014L224.879 47.8792L226.999 42Z" fill="#FFC648"/>
<path d="M284.999 161L287.121 166.879L293 169.001L287.121 171.121L284.999 177L282.879 171.121L277 169.001L282.879 166.879L284.999 161Z" fill="#FFC648"/>
<circle cx="61.5" cy="70.5" r="2.5" fill="#FFC648"/>
<circle cx="106.5" cy="29.5" r="2.5" fill="#FFC648"/>
<circle cx="8.5" cy="143.5" r="3.5" fill="#FFC648"/>
<circle cx="185.5" cy="2.5" r="2.5" fill="#FFC648"/>
<circle cx="300.5" cy="112.5" r="2.5" fill="#FFC648"/>
<path d="M181.498 361L184.018 368.349L191 371.002L184.018 373.651L181.498 381L178.982 373.651L172 371.002L178.982 368.349L181.498 361Z" fill="#FFC648"/>
<path d="M11.498 327L14.5487 335.451L23 338.502L14.5487 341.549L11.498 350L8.45134 341.549L0 338.502L8.45134 335.451L11.498 327Z" fill="#FFC648"/>
<path d="M246.998 430L249.916 438.084L258 441.002L249.916 443.916L246.998 452L244.084 443.916L236 441.002L244.084 438.084L246.998 430Z" fill="#FFC648"/>
<path d="M330.999 374L332.856 379.144L338 381.001L332.856 382.856L330.999 388L329.144 382.856L324 381.001L329.144 379.144L330.999 374Z" fill="#FFC648"/>
<circle cx="47" cy="380" r="1" fill="#FFC648"/>
<circle cx="102" cy="388" r="2" fill="#FFC648"/>
<circle cx="303" cy="329" r="2" fill="#FFC648"/>
<circle cx="36" cy="454" r="2" fill="#FFC648"/>
<circle cx="133" cy="454" r="2" fill="#FFC648"/>
<circle cx="247" cy="399" r="2" fill="#FFC648"/>
<circle cx="165" cy="348" r="1" fill="#FFC648"/>
<circle cx="298" cy="458" r="1" fill="#FFC648"/>
</svg>
