<svg width="593" height="428" viewBox="0 0 593 428" fill="none" xmlns="http://www.w3.org/2000/svg">
<circle cx="365" cy="201" r="3" fill="#FFC648"/>
<circle cx="377" cy="232" r="2" fill="#FFC648"/>
<circle cx="563" cy="149" r="3" fill="#FFC648"/>
<path d="M289.999 108L291.856 113.144L297 115.001L291.856 116.856L289.999 122L288.144 116.856L283 115.001L288.144 113.144L289.999 108Z" fill="#FFC648"/>
<path opacity="0.4" d="M264.409 104.82L96.032 0.142222C96.022 0.133326 96.0139 0.122367 96.0084 0.110108C96.0029 0.0978491 96 0.0845491 96 0.0710989C96 0.0576488 96.0029 0.0443728 96.0084 0.0321139C96.0139 0.0198549 96.022 0.00889643 96.032 0C96.032 0 96.032 0 96.1582 0L265.513 103.113C265.743 103.254 265.908 103.48 265.971 103.742C266.035 104.004 265.992 104.281 265.852 104.512C265.712 104.742 265.486 104.908 265.224 104.971C264.963 105.035 264.686 104.992 264.456 104.851L264.409 104.82Z" fill="#FFC648"/>
<path opacity="0.4" d="M102.111 181.901L8.01789 124.079C8.01227 124.074 8.00776 124.068 8.00468 124.061C8.00159 124.054 8 124.047 8 124.039C8 124.032 8.00159 124.025 8.00468 124.018C8.00776 124.011 8.01227 124.005 8.01789 124C8.01789 124 8.0179 124 8.08838 124L102.728 180.958C102.856 181.035 102.948 181.16 102.984 181.305C103.019 181.45 102.995 181.603 102.917 181.73C102.839 181.858 102.713 181.949 102.567 181.984C102.42 182.019 102.266 181.995 102.137 181.918L102.111 181.901Z" fill="#FFC648"/>
<path opacity="0.4" d="M305.156 206.791L110.037 85.1652C110.025 85.1549 110.016 85.1422 110.01 85.1279C110.003 85.1137 110 85.0982 110 85.0826C110 85.067 110.003 85.0516 110.01 85.0373C110.016 85.0231 110.025 85.0103 110.037 85C110.037 85 110.037 85 110.183 85L306.435 204.808C306.702 204.971 306.893 205.234 306.967 205.539C307.04 205.843 306.991 206.165 306.828 206.433C306.666 206.701 306.404 206.893 306.101 206.967C305.798 207.041 305.478 206.991 305.211 206.827L305.156 206.791Z" fill="#FFC648"/>
<path opacity="0.4" d="M376.156 427.791L181.037 306.165C181.025 306.155 181.016 306.142 181.01 306.128C181.003 306.114 181 306.098 181 306.083C181 306.067 181.003 306.052 181.01 306.037C181.016 306.023 181.025 306.01 181.037 306C181.037 306 181.037 306 181.183 306L377.435 425.808C377.702 425.971 377.893 426.234 377.967 426.539C378.04 426.843 377.991 427.165 377.828 427.433C377.666 427.701 377.404 427.893 377.101 427.967C376.798 428.041 376.478 427.991 376.211 427.827L376.156 427.791Z" fill="#FFC648"/>
<path opacity="0.4" d="M517.156 396.791L322.037 275.165C322.025 275.155 322.016 275.142 322.01 275.128C322.003 275.114 322 275.098 322 275.083C322 275.067 322.003 275.052 322.01 275.037C322.016 275.023 322.025 275.01 322.037 275C322.037 275 322.037 275 322.183 275L518.435 394.808C518.702 394.971 518.893 395.234 518.967 395.539C519.04 395.843 518.991 396.165 518.828 396.433C518.666 396.701 518.404 396.893 518.101 396.967C517.798 397.041 517.478 396.991 517.211 396.827L517.156 396.791Z" fill="#FFC648"/>
<circle cx="54" cy="111" r="1" fill="#FFC648"/>
<circle cx="86" cy="122" r="2" fill="#FFC648"/>
<circle cx="287" cy="61" r="2" fill="#FFC648"/>
<circle cx="591" cy="107" r="2" fill="#FFC648"/>
<circle cx="2" cy="200" r="2" fill="#FFC648"/>
<circle cx="416.5" cy="398.5" r="1.5" fill="#FFC648"/>
</svg>
