<svg width="315" height="315" viewBox="0 0 315 315" fill="none" xmlns="http://www.w3.org/2000/svg">
<g style="mix-blend-mode:screen">
<ellipse cx="157.023" cy="157.478" rx="157.023" ry="157.478" fill="url(#paint0_radial_306_332)" fill-opacity="0.2"/>
</g>
<mask id="mask0_306_332" style="mask-type:alpha" maskUnits="userSpaceOnUse" x="12" y="13" width="288" height="289">
<path d="M299.432 149.997C300.917 178.42 293.962 206.645 279.45 231.103C264.937 255.561 243.518 275.151 217.901 287.397C192.285 299.642 163.623 303.992 135.541 299.896C107.46 295.799 81.2203 283.441 60.143 264.384C39.0657 245.328 24.0978 220.429 17.1323 192.839C10.1668 165.248 11.517 136.205 21.0121 109.384C30.5073 82.5632 47.7206 59.1696 70.4745 42.163C93.2284 25.1563 120.5 15.3008 148.84 13.8433C186.806 11.8906 223.992 25.1337 252.229 50.6632C280.466 76.1927 297.443 111.921 299.432 149.997V149.997Z" fill="url(#paint1_radial_306_332)"/>
</mask>
<g mask="url(#mask0_306_332)">
<path d="M300.697 149.997C302.181 178.42 295.227 206.645 280.714 231.103C266.202 255.561 244.783 275.151 219.166 287.397C193.55 299.642 164.888 303.992 136.806 299.896C108.724 295.799 82.4851 283.441 61.4078 264.384C40.3304 245.328 25.3626 220.429 18.3971 192.839C11.4316 165.248 12.7818 136.205 22.2769 109.384C31.7721 82.5632 48.9853 59.1696 71.7393 42.163C94.4932 25.1563 121.765 15.3008 150.105 13.8433C188.071 11.8906 225.257 25.1337 253.494 50.6632C281.73 76.1927 298.708 111.921 300.697 149.997V149.997Z" fill="url(#paint2_radial_306_332)"/>
<path d="M300.697 149.997C302.181 178.42 295.227 206.645 280.714 231.103C266.202 255.561 244.783 275.151 219.166 287.397C193.55 299.642 164.888 303.992 136.806 299.896C108.724 295.799 82.4851 283.441 61.4078 264.384C40.3304 245.328 25.3626 220.429 18.3971 192.839C11.4316 165.248 12.7818 136.205 22.2769 109.384C31.7721 82.5632 48.9853 59.1696 71.7393 42.163C94.4932 25.1563 121.765 15.3008 150.105 13.8433C188.071 11.8906 225.257 25.1337 253.494 50.6632C281.73 76.1927 298.708 111.921 300.697 149.997V149.997Z" fill="url(#paint3_radial_306_332)" fill-opacity="0.5"/>
<g style="mix-blend-mode:overlay">
<g style="mix-blend-mode:overlay">
<path d="M237.704 108.607C236.588 104.995 236.816 101.099 238.347 97.6436C239.878 94.1879 242.608 91.4073 246.029 89.8179C244.163 88.8948 242.066 88.5487 240.004 88.8235C237.941 89.0982 236.007 89.9814 234.446 91.361C232.117 93.4278 230.391 96.0894 229.45 99.0625C228.51 102.035 228.39 105.209 229.106 108.244C229.883 111.259 231.251 114.089 233.131 116.567C235.012 119.045 237.367 121.122 240.057 122.676C242.714 124.472 245.927 125.245 249.107 124.855C249.765 124.726 250.404 124.513 251.007 124.22L248.563 123.04C243.203 119.836 239.306 114.656 237.704 108.607Z" fill="#FF5859"/>
</g>
<g style="mix-blend-mode:overlay">
<path d="M258.881 111.058C258.746 106.058 257.105 101.217 254.175 97.1699C252.207 93.9969 249.382 91.4478 246.03 89.8176C242.608 91.407 239.879 94.1876 238.347 97.6433C236.816 101.099 236.588 104.995 237.704 108.607C239.328 114.671 243.26 119.853 248.654 123.039L251.098 124.219L252.275 123.675C254.346 122.3 256.037 120.422 257.192 118.217C258.347 116.011 258.928 113.548 258.881 111.058V111.058Z" fill="#FFA87F"/>
</g>
</g>
<path opacity="0.59" d="M230.197 217.166C225.884 219.467 222.406 223.076 220.261 227.477C218.115 231.879 217.412 236.848 218.251 241.674C219.362 246.439 222.092 250.667 225.973 253.632C229.855 256.597 234.644 258.113 239.519 257.922C244.145 257.054 248.527 255.182 252.357 252.439C256.187 249.695 259.373 246.145 261.692 242.037C266.054 236.381 268.524 229.488 268.75 222.34C268.75 214.806 263.049 206.183 254.904 207.999C251.013 208.906 247.212 211.629 243.32 212.809C238.824 213.863 234.432 215.322 230.197 217.166V217.166Z" fill="#FFA87F"/>
<g style="mix-blend-mode:overlay" opacity="0.4">
<path d="M67.3862 207.273C107.116 216.35 148.022 203.098 187.299 192.205C226.576 181.313 269.926 173.053 306.759 190.662C310.832 192.568 315.085 198.196 311.375 200.738C233.364 172.508 147.298 229.784 65.5766 215.17C55.4406 213.354 -8.543 192.478 0.959501 179.407C6.661 171.056 55.8927 204.641 67.3862 207.273Z" fill="#FF1F70"/>
</g>
<g style="mix-blend-mode:overlay" opacity="0.6">
<path d="M116.433 245.941C130.913 245.124 145.212 241.947 159.783 241.221C190.643 239.587 220.779 249.027 251.006 255.472C266.482 258.83 284.672 260.736 296.256 249.844C304.182 240.153 308.274 227.875 307.75 215.352C308.182 212.297 307.871 209.183 306.845 206.275C304.992 203.228 302.285 200.797 299.062 199.285C286.402 192.418 272.465 188.245 258.123 187.027C243.781 185.808 229.342 187.571 215.711 192.205C209.467 194.384 203.404 197.107 196.978 199.013C190.072 200.928 183.018 202.264 175.891 203.007L121.591 210.541C105.636 213.664 89.2775 214.124 73.1736 211.903C52.6301 207.909 34.8921 194.293 14.3486 190.663C-1.94134 187.849 1.67856 197.561 9.73306 207.546C32.8105 236.864 80.7759 248.392 116.433 245.941Z" fill="url(#paint4_radial_306_332)"/>
</g>
<g style="mix-blend-mode:overlay" opacity="0.3">
<path d="M1.67944 121.314C18.9649 144.823 44.4859 164.974 74.0794 165.246C103.673 165.519 130.008 145.186 154.443 127.486C176.992 109.904 202.364 96.3061 229.468 87.2756C256.829 78.3134 286.565 80.1308 312.638 92.3587" stroke="#FF4084" stroke-width="37.4482" stroke-miterlimit="10"/>
</g>
<g style="mix-blend-mode:overlay" opacity="0.6">
<path d="M38.5144 175.14C53.3313 185.809 71.1362 191.497 89.3753 191.388C120.869 189.845 146.21 165.882 174.627 151.994C198.544 140.397 225.238 135.804 251.641 138.742C268.112 140.648 284.856 145.459 301.146 142.282C302.474 142.16 303.764 141.777 304.945 141.154C306.125 140.531 307.172 139.68 308.024 138.651C308.952 136.764 309.387 134.672 309.29 132.569C310.47 120.888 308.304 109.112 303.046 98.6218C298.813 93.037 293.333 88.5261 287.046 85.452C280.759 82.3779 273.839 80.8263 266.846 80.9218C238.338 79.6511 211.369 93.448 187.658 109.423C163.947 125.399 141.775 144.188 115.258 154.808C88.7417 165.428 56.4332 167.697 33.8082 150.542C27.6542 145.913 9.19243 125.126 9.10193 143.734C8.64943 156.533 29.6454 169.059 38.5144 175.14Z" fill="url(#paint5_radial_306_332)"/>
</g>
<g style="mix-blend-mode:overlay">
<g style="mix-blend-mode:overlay">
<path d="M155.528 44.8866C156.323 41.9738 157.695 39.2512 159.561 36.881C161.426 34.5107 163.749 32.5411 166.389 31.0896C168.829 29.7941 171.547 29.1168 174.308 29.1168C177.068 29.1168 179.787 29.7941 182.226 31.0896C181.427 29.3159 180.179 27.7827 178.606 26.642C176.108 24.9415 173.195 23.9581 170.18 23.7981C167.166 23.6381 164.164 24.3076 161.502 25.7342C158.861 27.1858 156.539 29.1553 154.673 31.5256C152.807 33.8959 151.437 36.6185 150.642 39.5312C149.511 42.4505 149.511 45.6889 150.642 48.6082C151.112 49.5931 151.756 50.4848 152.542 51.2404C153.378 52.0364 154.323 52.7088 155.348 53.2373C154.476 50.5118 154.539 47.5715 155.528 44.8866V44.8866Z" fill="#FF5859"/>
</g>
<g style="mix-blend-mode:screen">
<path d="M177.882 46.7029C179.945 44.757 181.44 42.2831 182.206 39.548C182.971 36.8129 182.978 33.9202 182.226 31.1815C179.786 29.8859 177.068 29.2086 174.307 29.2086C171.547 29.2086 168.828 29.8859 166.388 31.1815C163.748 32.633 161.426 34.6024 159.56 36.9727C157.694 39.343 156.323 42.0655 155.528 44.9783C154.576 47.7112 154.576 50.687 155.528 53.4199C158.802 55.0733 162.56 55.492 166.116 54.5998C170.736 53.2046 174.834 50.4543 177.882 46.7029V46.7029Z" fill="#B77758"/>
</g>
</g>
<g style="mix-blend-mode:overlay">
<g style="mix-blend-mode:overlay">
<path d="M256.437 166.699C256.175 166.243 256.037 165.727 256.037 165.201C256.037 164.675 256.175 164.159 256.437 163.703C256.722 163.213 257.114 162.795 257.585 162.48C258.055 162.165 258.592 161.963 259.152 161.888H257.976C257.348 161.942 256.74 162.132 256.193 162.446C255.646 162.759 255.174 163.189 254.809 163.703C254.563 164.18 254.434 164.709 254.434 165.246C254.434 165.783 254.563 166.313 254.809 166.79C255.114 167.293 255.552 167.702 256.076 167.97H257.523C257.013 167.7 256.624 167.246 256.437 166.699V166.699Z" fill="#FF5859"/>
</g>
<g style="mix-blend-mode:overlay">
<path d="M260.604 164.157C260.689 163.642 260.602 163.114 260.356 162.654C260.111 162.194 259.72 161.829 259.246 161.615C258.685 161.69 258.149 161.893 257.678 162.208C257.208 162.522 256.815 162.941 256.53 163.431C256.268 163.886 256.13 164.403 256.13 164.928C256.13 165.454 256.268 165.971 256.53 166.426C256.737 166.939 257.123 167.359 257.616 167.606C258.429 167.436 259.166 167.009 259.72 166.388C260.273 165.768 260.614 164.986 260.693 164.157H260.604Z" fill="#FFA87F"/>
</g>
</g>
<g style="mix-blend-mode:multiply" opacity="0.2">
<path d="M110.55 81.1941C104.712 87.0822 97.6289 91.58 89.8254 94.3557C85.8777 95.666 81.6121 95.6481 77.6755 94.3047C73.7389 92.9613 70.3473 90.3659 68.0157 86.9127C66.836 84.6094 66.2151 82.0589 66.205 79.4695C65.1984 82.103 64.721 84.9101 64.7987 87.7294C64.8763 90.5488 65.5079 93.3251 66.658 95.8989C68.9846 99.3333 72.3605 101.916 76.278 103.259C80.1955 104.601 84.4427 104.63 88.3782 103.342C96.2033 100.556 103.312 96.0606 109.192 90.1804C116.073 84.7281 122.164 78.3433 127.292 71.2095C130.298 66.8755 132.024 61.7786 132.27 56.5049C132.229 56.1126 132.229 55.7171 132.27 55.3248C131.368 57.7553 130.183 60.0708 128.741 62.2234C123.628 69.3998 117.5 75.7905 110.55 81.1941V81.1941Z" fill="#FF07CC"/>
</g>
<g style="mix-blend-mode:overlay" opacity="0.5">
<path d="M98.6957 43.6159C90.3136 45.1352 82.6905 49.4538 77.066 55.8696C73.1746 60.9796 70.1197 66.6787 68.016 72.7527C67.2015 74.9312 66.387 77.2005 65.7535 79.4697C65.7636 82.0592 66.3834 84.6096 67.5631 86.9129C69.8948 90.3661 73.2863 92.9615 77.2229 94.3049C81.1595 95.6483 85.4262 95.6662 89.3739 94.3559C97.1774 91.5803 104.26 87.0824 110.099 81.1944C117.017 75.7841 123.114 69.3937 128.199 62.2236C129.641 60.071 130.825 57.7555 131.727 55.325C131.184 38.9866 110.461 41.0743 98.6957 43.6159Z" fill="#FF1F70"/>
</g>
<g style="mix-blend-mode:overlay">
<path d="M146.125 99.7116C148.274 100.925 150.643 101.697 153.093 101.981C156.253 102.467 159.479 101.755 162.143 99.9839C163.372 98.9494 164.493 97.7938 165.492 96.5346L166.668 94.9917C166.285 92.1689 165.586 89.3981 164.586 86.7317C164.039 84.6298 162.982 82.6965 161.509 81.104C160.475 80.2564 159.248 79.6798 157.936 79.4263C156.625 79.1728 155.272 79.2502 153.998 79.6517C151.43 80.4086 149.054 81.7085 147.029 83.464C145.232 84.5966 143.741 86.1552 142.686 88.0024C141.933 89.3961 141.539 90.956 141.539 92.5409C141.539 94.1258 141.933 95.6855 142.686 97.0792C143.138 96.8069 145.039 99.0762 146.125 99.7116Z" fill="#FF1F70"/>
</g>
<g style="mix-blend-mode:multiply">
<path d="M154.449 106.247C155.753 106.594 157.114 106.677 158.45 106.49C159.787 106.303 161.072 105.85 162.232 105.158C163.621 104.109 164.729 102.731 165.455 101.146C166.182 99.5621 166.505 97.8215 166.396 96.081C166.396 95.5364 166.396 94.9917 166.396 94.5378L165.219 96.081C164.221 97.3402 163.099 98.4958 161.871 99.5303C159.206 101.302 155.98 102.014 152.821 101.527C150.37 101.243 148.001 100.472 145.852 99.258C144.766 98.6226 142.866 96.3533 141.689 96.6256C142.941 99.1011 144.742 101.256 146.954 102.924C149.167 104.592 151.73 105.729 154.449 106.247V106.247Z" fill="#EC6FD2"/>
</g>
<g style="mix-blend-mode:overlay">
<path d="M213.448 161.796C212.599 163.461 212.105 165.285 211.999 167.152C211.84 169.459 212.515 171.747 213.901 173.597C214.749 174.508 215.689 175.329 216.706 176.047C217.063 176.341 217.459 176.585 217.882 176.773C219.963 176.391 221.997 175.782 223.946 174.958C225.538 174.459 226.973 173.551 228.109 172.326C228.691 171.507 229.063 170.556 229.189 169.558C229.315 168.56 229.194 167.546 228.833 166.607C228.166 164.672 227.084 162.906 225.665 161.433C224.71 160.174 223.51 159.124 222.136 158.347C221.071 157.805 219.892 157.522 218.697 157.522C217.502 157.522 216.324 157.805 215.258 158.347C215.439 159.346 213.81 160.979 213.448 161.796Z" fill="#FF1F70"/>
</g>
<g style="mix-blend-mode:multiply">
<path d="M208.928 168.332C208.502 170.365 208.892 172.485 210.014 174.232C210.842 175.177 211.878 175.916 213.041 176.389C214.204 176.862 215.46 177.056 216.711 176.955H217.887C217.464 176.767 217.069 176.522 216.711 176.229C215.694 175.511 214.755 174.689 213.906 173.778C212.521 171.929 211.845 169.641 212.005 167.333C212.11 165.467 212.604 163.643 213.453 161.978C213.453 161.161 215.445 159.527 215.264 158.71C213.601 159.787 212.179 161.198 211.089 162.854C209.998 164.511 209.263 166.376 208.928 168.332V168.332Z" fill="#FF07CC"/>
</g>
<path d="M211.284 52.6924C210.958 54.5392 211.211 56.4417 212.007 58.1385C212.441 59.7381 213.216 61.2242 214.279 62.4937C215.341 63.7632 216.666 64.7859 218.162 65.4909C220.259 65.8112 222.375 65.9931 224.496 66.0355C225.903 66.4689 227.369 66.6831 228.841 66.6708C230.286 66.2862 231.523 65.3476 232.285 64.0573C233.046 62.767 233.272 61.2282 232.913 59.7724C231.959 56.9057 229.997 54.4857 227.393 52.9647C223.863 50.4232 213.003 45.0678 211.284 52.6924Z" fill="#FFA87F"/>
<path d="M189.016 61.1336C188.07 60.8612 187.065 60.8612 186.119 61.1336C185.242 61.1371 184.377 61.3437 183.593 61.7373C182.808 62.1309 182.123 62.7009 181.594 63.4028C181.109 64.3935 180.715 65.4267 180.418 66.4891C180.054 67.1772 179.781 67.9093 179.603 68.6675C179.603 70.2106 180.962 71.5721 182.5 71.6629C184.116 71.5507 185.632 70.8387 186.753 69.6659C188.473 67.7598 192.636 63.0398 189.016 61.1336Z" fill="#FFA87F"/>
</g>
<defs>
<radialGradient id="paint0_radial_306_332" cx="0" cy="0" r="1" gradientUnits="userSpaceOnUse" gradientTransform="translate(157.023 157.478) rotate(90) scale(157.478 157.023)">
<stop offset="0.916667" stop-color="#F0D1FF" stop-opacity="0"/>
<stop offset="1" stop-color="#FFA87F" stop-opacity="0.65"/>
</radialGradient>
<radialGradient id="paint1_radial_306_332" cx="0" cy="0" r="1" gradientUnits="userSpaceOnUse" gradientTransform="translate(76.9574 324.633) rotate(-2.95877) scale(476.938 478.351)">
<stop offset="0.31" stop-color="#FF4A89"/>
<stop offset="0.42" stop-color="#FF6269"/>
<stop offset="0.61" stop-color="#FF833C"/>
<stop offset="0.77" stop-color="#FF9C1B"/>
<stop offset="0.91" stop-color="#FFAB07"/>
<stop offset="1" stop-color="#FFB000"/>
</radialGradient>
<radialGradient id="paint2_radial_306_332" cx="0" cy="0" r="1" gradientUnits="userSpaceOnUse" gradientTransform="translate(78.2222 324.633) rotate(-4.34241) scale(531.657 533.232)">
<stop offset="0.31" stop-color="#E73D65"/>
<stop offset="0.42" stop-color="#FF6269"/>
<stop offset="0.61" stop-color="#FF833C"/>
<stop offset="0.77" stop-color="#FF9C1B"/>
<stop offset="0.91" stop-color="#FFAB07"/>
<stop offset="1" stop-color="#FFB000"/>
</radialGradient>
<radialGradient id="paint3_radial_306_332" cx="0" cy="0" r="1" gradientUnits="userSpaceOnUse" gradientTransform="translate(84.9432 284.833) rotate(-59.7763) scale(114.83 372.289)">
<stop stop-color="#050003"/>
<stop offset="1" stop-color="#5B0037" stop-opacity="0"/>
</radialGradient>
<radialGradient id="paint4_radial_306_332" cx="0" cy="0" r="1" gradientUnits="userSpaceOnUse" gradientTransform="translate(241.594 173.474) rotate(154.414) scale(185.936 409.846)">
<stop stop-color="#FF1F70" stop-opacity="0.67"/>
<stop offset="1" stop-color="#FF1F70" stop-opacity="0"/>
</radialGradient>
<radialGradient id="paint5_radial_306_332" cx="0" cy="0" r="1" gradientUnits="userSpaceOnUse" gradientTransform="translate(244.242 60.4494) rotate(143.054) scale(206.724 561.944)">
<stop stop-color="#FF1F70" stop-opacity="0.67"/>
<stop offset="1" stop-color="#FF1F70" stop-opacity="0"/>
</radialGradient>
</defs>
</svg>
